$MeshFormat
2.2 0 8
$EndMeshFormat
$Nodes
1090
1 0 0 0
2 0.1 0 0
3 0 0.1 0
4 -0.1 0 0
5 0 -0.1 0
6 0.09987954561993045 0.004906767444686294 0
7 0.09951847266489733 0.009801714056535522 0
8 0.09891765099111845 0.01467304748166799 0
9 0.09807852803059383 0.01950903225052492 0
10 0.09700312530387077 0.02429801805253974 0
11 0.09569403355052686 0.02902846780025847 0
12 0.09415440648735954 0.03368898542570064 0
13 0.09238795320917061 0.03826834333780474 0
14 0.09039892925748334 0.04275550945902203 0
15 0.0881921263667792 0.04713967380992418 0
16 0.08577286092012354 0.05141027455263339 0
17 0.08314696113319854 0.05555702344721478 0
18 0.08032075303282082 0.05956993060463143 0
19 0.07730104520302278 0.06343932857873127 0
20 0.07409511238374532 0.06715589565213284 0
21 0.07071067795109115 0.07071067828621835 0
22 0.06715589532359521 0.07409511268151446 0
23 0.06343932826487551 0.07730104546059753 0
24 0.05956993030617391 0.08032075325417201 0
25 0.0555570231612244 0.08314696132429121 0
26 0.05141027428059344 0.08577286108317801 0
27 0.04713967355284757 0.08819212650418951 0
28 0.04275550921923981 0.09039892937089189 0
29 0.03826834312438843 0.09238795329757053 0
30 0.03368898523789309 0.09415440655455815 0
31 0.02902846763909285 0.0956940335994159 0
32 0.02429801792023453 0.0970031253370115 0
33 0.01950903214287245 0.09807852805200723 0
34 0.01467304739993374 0.09891765100324258 0
35 0.009801714004331587 0.09951847267003895 0
36 0.004906767420642096 0.09987954562111168 0
37 -0.004906767444686294 0.09987954561993045 0
38 -0.009801714056535522 0.09951847266489733 0
39 -0.01467304748166799 0.09891765099111845 0
40 -0.01950903225052492 0.09807852803059383 0
41 -0.02429801805253974 0.09700312530387077 0
42 -0.02902846780025847 0.09569403355052686 0
43 -0.03368898542570064 0.09415440648735954 0
44 -0.03826834333780474 0.09238795320917061 0
45 -0.04275550945902203 0.09039892925748334 0
46 -0.04713967380992418 0.0881921263667792 0
47 -0.05141027455263339 0.08577286092012354 0
48 -0.05555702344721478 0.08314696113319854 0
49 -0.05956993060463143 0.08032075303282082 0
50 -0.06343932857873127 0.07730104520302278 0
51 -0.06715589565213284 0.07409511238374532 0
52 -0.07071067828621835 0.07071067795109115 0
53 -0.07409511268151446 0.06715589532359521 0
54 -0.07730104546059753 0.06343932826487551 0
55 -0.08032075325417201 0.05956993030617391 0
56 -0.08314696132429121 0.0555570231612244 0
57 -0.08577286108317801 0.05141027428059344 0
58 -0.08819212650418951 0.04713967355284757 0
59 -0.09039892937089189 0.04275550921923981 0
60 -0.09238795329757053 0.03826834312438843 0
61 -0.09415440655455815 0.03368898523789309 0
62 -0.0956940335994159 0.02902846763909285 0
63 -0.0970031253370115 0.02429801792023453 0
64 -0.09807852805200723 0.01950903214287245 0
65 -0.09891765100324258 0.01467304739993374 0
66 -0.09951847267003895 0.009801714004331587 0
67 -0.09987954562111168 0.004906767420642096 0
68 -0.09987954561993045 -0.004906767444686294 0
69 -0.09951847266489733 -0.009801714056535522 0
70 -0.09891765099111845 -0.01467304748166799 0
71 -0.09807852803059383 -0.01950903225052492 0
72 -0.09700312530387077 -0.02429801805253974 0
73 -0.09569403355052686 -0.02902846780025847 0
74 -0.09415440648735954 -0.03368898542570064 0
75 -0.09238795320917061 -0.03826834333780474 0
76 -0.09039892925748334 -0.04275550945902203 0
77 -0.0881921263667792 -0.04713967380992418 0
78 -0.08577286092012354 -0.05141027455263339 0
79 -0.08314696113319854 -0.05555702344721478 0
80 -0.08032075303282082 -0.05956993060463143 0
81 -0.07730104520302278 -0.06343932857873127 0
82 -0.07409511238374532 -0.06715589565213284 0
83 -0.07071067795109115 -0.07071067828621835 0
84 -0.06715589532359521 -0.07409511268151446 0
85 -0.06343932826487551 -0.07730104546059753 0
86 -0.05956993030617391 -0.08032075325417201 0
87 -0.0555570231612244 -0.08314696132429121 0
88 -0.05141027428059344 -0.08577286108317801 0
89 -0.04713967355284757 -0.08819212650418951 0
90 -0.04275550921923981 -0.09039892937089189 0
91 -0.03826834312438843 -0.09238795329757053 0
92 -0.03368898523789309 -0.09415440655455815 0
93 -0.02902846763909285 -0.0956940335994159 0
94 -0.02429801792023453 -0.0970031253370115 0
95 -0.01950903214287245 -0.09807852805200723 0
96 -0.01467304739993374 -0.09891765100324258 0
97 -0.009801714004331587 -0.09951847267003895 0
98 -0.004906767420642096 -0.09987954562111168 0
99 0.004906767444686294 -0.09987954561993045 0
100 0.009801714056535522 -0.09951847266489733 0
101 0.01467304748166799 -0.09891765099111845 0
102 0.01950903225052492 -0.09807852803059383 0
103 0.02429801805253974 -0.09700312530387077 0
104 0.02902846780025847 -0.09569403355052686 0
105 0.03368898542570064 -0.09415440648735954 0
106 0.03826834333780474 -0.09238795320917061 0
107 0.04275550945902203 -0.09039892925748334 0
108 0.04713967380992418 -0.0881921263667792 0
109 0.05141027455263339 -0.08577286092012354 0
110 0.05555702344721478 -0.08314696113319854 0
111 0.05956993060463143 -0.08032075303282082 0
112 0.06343932857873127 -0.07730104520302278 0
113 0.06715589565213284 -0.07409511238374532 0
114 0.07071067828621835 -0.07071067795109115 0
115 0.07409511268151446 -0.06715589532359521 0
116 0.07730104546059753 -0.06343932826487551 0
117 0.08032075325417201 -0.05956993030617391 0
118 0.08314696132429121 -0.0555570231612244 0
119 0.08577286108317801 -0.05141027428059344 0
120 0.08819212650418951 -0.04713967355284757 0
121 0.09039892937089189 -0.04275550921923981 0
122 0.09238795329757053 -0.03826834312438843 0
123 0.09415440655455815 -0.03368898523789309 0
124 0.0956940335994159 -0.02902846763909285 0
125 0.0970031253370115 -0.02429801792023453 0
126 0.09807852805200723 -0.01950903214287245 0
127 0.09891765100324258 -0.01467304739993374 0
128 0.09951847267003895 -0.009801714004331587 0
129 0.09987954562111168 -0.004906767420642096 0
130 0.0994599466744894 2.325590414686829e-11 0
131 0.09880761788829692 -0.004902835292856646 0
132 0.09792377044581863 -0.009790287480523917 0
133 0.09681017327955398 -0.01465094257617064 0
134 0.0954691488098538 -0.01947345116665834 0
135 0.09390356735123569 -0.02424655573256792 0
136 0.0921168401925628 -0.02895911778561468 0
137 0.09011291138182873 -0.03360014468673461 0
138 0.08789624822829387 -0.03815881612329696 0
139 0.08547183053203743 -0.04262451019544365 0
140 0.08284513859922737 -0.04698682897915741 0
141 0.08002214002162933 -0.0512356236093876 0
142 0.07700927532185226 -0.05536101869298172 0
143 0.07381344242704851 -0.05935343611890186 0
144 0.07044198004322613 -0.06320361814139139 0
145 0.06690264998260179 -0.06690264967142695 0
146 0.06320361844906877 -0.07044197976789383 0
147 0.05935343641553938 -0.07381344218984519 0
148 0.05536101897767153 -0.07700927511899852 0
149 0.05123562388457532 -0.08002213984764567 0
150 0.04698682924331139 -0.08284513845194179 0
151 0.04262451044747351 -0.08547183040913339 0
152 0.03815881636091083 -0.08789624812808977 0
153 0.03360014490141971 -0.0901129113047727 0
154 0.02895911797790275 -0.09211684013507299 0
155 0.024246555901353 -0.09390356731049304 0
156 0.01947345130974096 -0.0954691487832781 0
157 0.01465094269733699 -0.09681017326354575 0
158 0.009790287578487168 -0.09792377043796116 0
159 0.004902835364138078 -0.09880761788615003 0
160 2.252252637863217e-11 -0.09945994667522276 0
161 0.098807617884552 0.004902835365736142 0
162 0.09787192199488745 4.861983819021143e-11 0
163 0.09671293750837631 -0.004895682199691108 0
164 0.09533275485873194 -0.009773118916623174 0
165 0.09373399736597786 -0.01462126158881197 0
166 0.09191981491798709 -0.0194291322703482 0
167 0.08989387637714787 -0.02418585004621707 0
168 0.08766036074432228 -0.02888065723053008 0
169 0.0852239470955872 -0.03350294527737006 0
170 0.08258980330142793 -0.03804228035662604 0
171 0.07976357358846214 -0.04248842846488565 0
172 0.07675136492380835 -0.04683138011327939 0
173 0.07355973232602761 -0.05106137440408273 0
174 0.07019566306164488 -0.05516892256578904 0
175 0.06666655980473191 -0.05914483082061664 0
176 0.06298022281041964 -0.06298022252176746 0
177 0.05914483110902983 -0.06666655955067127 0
178 0.05516892284695979 -0.07019566284392333 0
179 0.05106137467691643 -0.07355973214105252 0
180 0.04683138037974707 -0.07675136476657475 0
181 0.04248842872340876 -0.07976357345684496 0
182 0.03804228060603845 -0.08258980319318639 0
183 0.03350294551541817 -0.08522394700900143 0
184 0.02888065744924697 -0.08766036067929457 0
185 0.02418585024591345 -0.08989387633031728 0
186 0.01942913244984613 -0.09191981488660669 0
187 0.01462126174592938 -0.09373399734744996 0
188 0.009773119054733473 -0.09533275484986986 0
189 0.004895682317485285 -0.09671293750678553 0
190 4.550799927866001e-11 -0.09787192199799928 0
191 -0.004902835294284723 -0.09880761788972504 0
192 0.09792377043544392 0.009790287581004409 0
193 0.09671293750188384 0.004895682322386999 0
194 0.09528704603092004 7.293502607419455e-11 0
195 0.09364850795747884 -0.004885988205780805 0
196 0.0918002475012573 -0.009751534900169537 0
197 0.08974569412348209 -0.01458594163783369 0
198 0.08748877426006613 -0.01937858507702864 0
199 0.08503390186474773 -0.02411894248503398 0
200 0.08238596778041474 -0.02879661708265153 0
201 0.07955032794795291 -0.03340136310952342 0
202 0.07653279051442542 -0.03792311048284615 0
203 0.07333960182232616 -0.0423519890899092 0
204 0.06997743138615342 -0.04667835252843076 0
205 0.0664533558118021 -0.05089280136643824 0
206 0.06277484174141018 -0.05498620579412238 0
207 0.05894972787301576 -0.05894972760691756 0
208 0.05498620606332613 -0.06277484150884102 0
209 0.05089280163227158 -0.06645335561398205 0
210 0.04667835278961727 -0.0699774312196717 0
211 0.04235198934795678 -0.07333960168264089 0
212 0.03792311073613062 -0.07653279039945717 0
213 0.03340136335680491 -0.07955032785553465 0
214 0.02879661732171369 -0.08238596770878934 0
215 0.0241189427084423 -0.08503390181328498 0
216 0.0193785852848774 -0.08748877422562162 0
217 0.01458594182887373 -0.08974569410338006 0
218 0.00975153507223459 -0.09180024749288436 0
219 0.004885988361840529 -0.09364850795805196 0
220 6.578734779161266e-11 -0.09528704603806772 0
221 -0.00489568220422879 -0.09671293751291402 0
222 -0.009790287482606342 -0.09792377044790106 0
223 0.09681017326020193 0.01465094270068082 0
224 0.0953327548433586 0.00977311906124477 0
225 0.0936485079485572 0.004885988371335309 0
226 0.09176016601193593 9.151924010297741e-11 0
227 0.08967095415286636 -0.004874399064385205 0
228 0.08738458140592649 -0.009726790297494386 0
229 0.08490523178055405 -0.01454680783933417 0
230 0.08223755418337125 -0.01932416391034439 0
231 0.07938665122407138 -0.02404867349805158 0
232 0.07635806691393442 -0.02871027891185701 0
233 0.07315777332046505 -0.03329907398957027 0
234 0.0697921561615554 -0.0378053279946168 0
235 0.0662679994476261 -0.04221950902017271 0
236 0.06259246912393879 -0.0465323069738024 0
237 0.05877309580070054 -0.05073465601366633 0
238 0.05481775661884915 -0.05481775637743883 0
239 0.05073465626143277 -0.05877309559176921 0
240 0.04653230722196453 -0.06259246894819093 0
241 0.04221950926727744 -0.06626799930182754 0
242 0.03780532824172077 -0.06979215604161562 0
243 0.03329907423500517 -0.07315777322434872 0
244 0.02871027915431106 -0.07635806683954635 0
245 0.02404867373534477 -0.07938665116961816 0
246 0.01932416413556073 -0.08223755414770423 0
247 0.01454680805235618 -0.08490523176074055 0
248 0.009726790497002556 -0.08738458139936107 0
249 0.004874399248227339 -0.08967095415692149 0
250 7.923215902816416e-11 -0.09176016602422302 0
251 -0.004885988215030531 -0.09364850796672855 0
252 -0.009773118922495334 -0.09533275486460409 0
253 -0.01465094257886547 -0.09681017328224883 0
254 0.09546914877912296 0.01947345131389609 0
255 0.09373399733935887 0.0146212617540205 0
256 0.09180024748108591 0.009751535084033069 0
257 0.08967095414165321 0.004874399263495604 0
258 0.08734964334010745 1.06454284623525e-10 0
259 0.08484030368437621 -0.004861523161723211 0
260 0.08214737675742159 -0.009700062345833536 0
261 0.07927574641875795 -0.01450556461946872 0
262 0.07623072704487807 -0.01926805673688588 0
263 0.07301805071745018 -0.02397766907725178 0
264 0.06964385342441592 -0.02862465939899347 0
265 0.06611466025908974 -0.03319943634164849 0
266 0.06243736972779868 -0.03769258249386662 0
267 0.05861923711516834 -0.0420948771027523 0
268 0.0546678569994774 -0.04639731829443301 0
269 0.05059114496455584 -0.05059114474883068 0
270 0.04639731851974645 -0.05466785681527282 0
271 0.04209487733219679 -0.05861923696268562 0
272 0.03769258272581773 -0.06243736960397502 0
273 0.03319943657672381 -0.06611466016027362 0
274 0.02862465963548208 -0.06964385334861466 0
275 0.02397766931377211 -0.07301805066263836 0
276 0.01926805697129312 -0.07623072700922713 0
277 0.01450556484535095 -0.07927574640061508 0
278 0.009700062562866447 -0.08214737675406096 0
279 0.004861523368517815 -0.08484030369326188 0
280 8.796214971684702e-11 -0.08734964335859959 0
281 -0.004874399079266683 -0.08967095416774781 0
282 -0.009751534911372324 -0.0918002475124601 0
283 -0.01462126159592403 -0.09373399737308989 0
284 -0.01947345116992218 -0.09546914881311762 0
285 0.0939035673053623 0.02424655590648376 0
286 0.0919198148766158 0.01942913245983705 0
287 0.08974569408881135 0.01458594184344248 0
288 0.08738458138050785 0.009726790515855798 0
289 0.08484030367042782 0.004861523391351881 0
290 0.08211712913984627 1.217803670405804e-10 0
291 0.07921975694524941 -0.004847928670926495 0
292 0.07615330589905217 -0.009672445113504506 0
293 0.07292330214454072 -0.01446378772694746 0
294 0.06953566583376493 -0.01921227496019405 0
295 0.06599669687509915 -0.02390832849229321 0
296 0.06231305973730456 -0.02854249633887002 0
297 0.05849176742259843 -0.03310547558406417 0
298 0.05454016455496725 -0.03758813481452317 0
299 0.05046590968076416 -0.04198153612433877 0
300 0.04627695682670326 -0.04627695663568835 0
301 0.04198153632837441 -0.0504659095206254 0
302 0.03758813502661283 -0.05454016442541543 0
303 0.03310547580241752 -0.05849176732073669 0
304 0.02854249656367837 -0.06231305965990756 0
305 0.0239083287218045 -0.06599669682021543 0
306 0.01921227519295902 -0.06953566579943676 0
307 0.01446378796085544 -0.07292330212890533 0
308 0.009672445342632804 -0.07615330589996756 0
309 0.004847928894748967 -0.07921975696019164 0
310 9.527871547287958e-11 -0.0821171291663479 0
311 -0.004861523183185527 -0.08484030370583855 0
312 -0.009726790314766103 -0.08738458142319823 0
313 -0.01458594165083585 -0.08974569413648421 0
314 -0.01942913227860259 -0.09191981492624145 0
315 -0.02424655573635601 -0.09390356735502377 0
316 0.09211684012899632 0.02895911798397942 0
317 0.08989387631848443 0.02418585025774632 0
318 0.08748877420836698 0.01937858530213208 0
319 0.08490523173841148 0.01454680807468526 0
320 0.08214737672701711 0.009700062589910288 0
321 0.07921975692880406 0.004847928926136542 0
322 0.07612732907378238 1.32024950000309e-10 0
323 0.07287544692727599 -0.004834140872295497 0
324 0.06946984839935846 -0.009644944374561377 0
325 0.06591664171245445 -0.01442291689349004 0
326 0.06222229069536652 -0.01915864402875686 0
327 0.0583935991923278 -0.02384281317204914 0
328 0.05443769470142913 -0.02846623590301315 0
329 0.0503620111860146 -0.03301987014784271 0
330 0.0461742711605148 -0.03749484196859088 0
331 0.04188246709451982 -0.04188246692969864 0
332 0.03749484214981758 -0.0461742710259945 0
333 0.03301987034098559 -0.05036201108102849 0
334 0.02846623610612169 -0.05443769462324059 0
335 0.02384281338490131 -0.05839359913812484 0
336 0.01915864424956111 -0.06222229066323717 0
337 0.01442291712073154 -0.06591664170050658 0
338 0.009644944606162505 -0.0694698484056962 0
339 0.00483414110280744 -0.0728754469492835 0
340 9.667510889044273e-11 -0.07612732910913222 0
341 -0.00484792870077363 -0.07921975697509658 0
342 -0.009700062370005189 -0.08214737678159323 0
343 -0.01454680785878621 -0.0849052318000061 0
344 -0.01937858509167215 -0.08748877427470964 0
345 -0.02418585005551346 -0.08989387638644426 0
346 -0.02895911778988096 -0.09211684019682906 0
347 0.09011291129773541 0.03360014490845702 0
348 0.08766036066559109 0.02888065746295042 0
349 0.0850339017933026 0.02411894272842468 0
350 0.08223755412184527 0.01932416416141967 0
351 0.07927574636929605 0.01450556487666997 0
352 0.07615330586361813 0.009672445378982229 0
353 0.07287544690834544 0.004834141143745509 0
354 0.06944775822171992 1.379622527331037e-10 0
355 0.06587618948059626 -0.004820639692853498 0
356 0.06216703697776731 -0.009618472937204723 0
357 0.0583269284624592 -0.01438424911539805 0
358 0.05436280715440313 -0.01910879499515722 0
359 0.0502819150475465 -0.02378303665165229 0
360 0.04609177544458781 -0.0283980213506267 0
361 0.04180017482803807 -0.03294493912209195 0
362 0.03741514411035504 -0.03741514397276101 0
363 0.03294493927947449 -0.04180017472028753 0
364 0.02839802152377245 -0.04609177536545012 0
365 0.0237830368384562 -0.05028191499443946 0
366 0.01910879519499735 -0.05436280712491476 0
367 0.01438424932644495 -0.05832692845471536 0
368 0.009618473157880201 -0.06216703698993923 0
369 0.004820639921111855 -0.06587618951075618 0
370 9.288837407583905e-11 -0.06944775826679378 0
371 -0.004834140911216592 -0.0728754469661971 0
372 -0.009672445146366976 -0.07615330593191461 0
373 -0.01450556464608233 -0.07927574644537155 0
374 -0.01932416393176158 -0.08223755420478848 0
375 -0.02411894250115687 -0.08503390188087062 0
376 -0.02888065724076564 -0.08766036075455785 0
377 -0.03360014469143188 -0.090112911386526 0
378 0.0878962481200091 0.03815881636899152 0
379 0.08522394699326624 0.03350294553115334 0
380 0.08238596768584433 0.0287966173446587 0
381 0.0793866511399253 0.02404867376503765 0
382 0.07623072697326463 0.01926805700725559 0
383 0.07292330208716662 0.01446378800259415 0
384 0.06946984835868854 0.00964494465317018 0
385 0.06587618945899951 0.00482063997286852 0
386 0.06214848683172884 1.404473204402734e-10 0
387 0.0582932248400307 -0.004807857502389067 0
388 0.05431719515354989 -0.009593846396583373 0
389 0.05022748036754232 -0.01434893268586927 0
390 0.0460314369717944 -0.01906415694095812 0
391 0.0417366776083557 -0.02373065576714636 0
392 0.03735105272782076 -0.02833968316240086 0
393 0.03288263168550649 -0.03288263157571517 0
394 0.02833968329544517 -0.03735105264761938 0
395 0.02373065591986858 -0.04173667755606334 0
396 0.01906415711110468 -0.04603143694497745 0
397 0.01434893287243193 -0.05022748036417504 0
398 0.00959384659769643 -0.05431719517179443 0
399 0.004807857716413275 -0.05829322487811936 0
400 8.447306049097492e-11 -0.06214848688770311 0
401 -0.004820639741600387 -0.06587618952934313 0
402 -0.009644944416654106 -0.0694698484414512 0
403 -0.01446378776248785 -0.0729233021800811 0
404 -0.01926805676566821 -0.07623072707366041 0
405 -0.02404867352121404 -0.07938665124723382 0
406 -0.02879661710008826 -0.08238596779785147 0
407 -0.03350294528843971 -0.08522394710665683 0
408 -0.03815881612837702 -0.08789624823337391 0
409 0.08547183040025307 0.04262451045635381 0
410 0.08258980317589423 0.03804228062333067 0
411 0.07955032783031915 0.03340136338202039 0
412 0.0763580668069153 0.02871027918694214 0
413 0.07301805062311734 0.02397766935329317 0
414 0.06953566575356787 0.0192122752388279 0
415 0.06591664164884736 0.01442291717239076 0
416 0.06216703693306108 0.009618473214758342 0
417 0.05829322481660627 0.00480785777792634 0
418 0.05430187773299106 1.3379945068559e-10 0
419 0.05019995127227407 -0.00479617707920597 0
420 0.04599466740526274 -0.009571779380806444 0
421 0.04169349711756471 -0.01431796183727241 0
422 0.03730414239057717 -0.01902595039345666 0
423 0.03283451764298118 -0.02368706301527831 0
424 0.02829273067294409 -0.02829273059402013 0
425 0.02368706312054239 -0.03283451759314104 0
426 0.01902595052192211 -0.0373041423677036 0
427 0.01431796198654312 -0.04169349711936662 0
428 0.009571779549501769 -0.04599466743008685 0
429 0.004796177265425684 -0.050199951318317 0
430 6.82466132218007e-11 -0.05430187779854388 0
431 -0.004807857562039337 -0.05829322489968097 0
432 -0.009618472989152985 -0.06216703702971557 0
433 -0.01442291693834713 -0.06591664175731154 0
434 -0.01921227499806849 -0.06953566587163937 0
435 -0.02397766910792434 -0.0730180507481227 0
436 -0.02871027893654063 -0.07635806693861803 0
437 -0.03340136312810527 -0.07955032796653476 0
438 -0.03804228036842267 -0.08258980331322459 0
439 -0.04262451020085731 -0.08547183053745111 0
440 0.08284513844227959 0.04698682925297362 0
441 0.07976357343803014 0.0424884287422236 0
442 0.07653279037202139 0.03792311076356644 0
443 0.07315777318884437 0.0332990742705095 0
444 0.06964385330561365 0.02862465967848308 0
445 0.06599669677030764 0.02390832877171228 0
446 0.0622222906070292 0.01915864430576908 0
447 0.05832692839282892 0.01438424938833137 0
448 0.05431719510486496 0.009593846664625913 0
449 0.05019995124699203 0.00479617733675064 0
450 0.04598231632967745 1.224762409546276e-10 0
451 0.04167165169930753 -0.004785929873869093 0
452 0.03727554283729279 -0.009552882214132866 0
453 0.03280178106437458 -0.0142921721827276 0
454 0.02825834476732352 -0.01899518171352144 0
455 0.02365338018714855 -0.02365338014009518 0
456 0.01899518178991715 -0.02825834474888969 0
457 0.01429217228574905 -0.03280178107202093 0
458 0.009552882341247515 -0.03727554286886468 0
459 0.004785930023338034 -0.04167165175350988 0
460 4.741395817631222e-11 -0.04598231640473975 0
461 -0.004796177148193678 -0.05019995134126178 0
462 -0.009593846459359231 -0.05431719521632577 0
463 -0.01438424917006832 -0.05832692851712946 0
464 -0.0191586440759644 -0.06222229074257407 0
465 -0.02390832853215222 -0.06599669691495819 0
466 -0.02862465943127322 -0.06964385345669569 0
467 -0.03329907401554728 -0.07315777334644205 0
468 -0.03792311050240166 -0.07653279053398093 0
469 -0.0424884284773004 -0.07976357360087688 0
470 -0.04698682898485476 -0.08284513860492469 0
471 0.08002213983716719 0.0512356238950538 0
472 0.07675136474617042 0.04683138040015143 0
473 0.07333960165288728 0.0423519893777104 0
474 0.06979215600311184 0.03780532828022457 0
475 0.0661146601136398 0.03319943662335764 0
476 0.06231305960578352 0.02854249661780245 0
477 0.05839359907716834 0.02384281344585783 0
478 0.05436280705780004 0.01910879526211206 0
479 0.05022748029159126 0.01434893294501572 0
480 0.04599466735273624 0.009571779626852388 0
481 0.04167165167210621 0.004785930104741709 0
482 0.03726593397169437 1.070842338413147e-10 0
483 0.0327852142286961 -0.004777394423563182 0
484 0.02823737310319338 -0.009537658111176461 0
485 0.02363045295004977 -0.01427223685756968 0
486 0.01897263845310693 -0.01897263843863068 0
487 0.01427223690436941 -0.02363045296383622 0
488 0.009537658187990825 -0.02823737314229539 0
489 0.004777394527729423 -0.03278521429108928 0
490 2.235102034009451e-11 -0.0372659340564276 0
491 -0.004785929952001541 -0.04167165177743996 0
492 -0.009571779452615864 -0.04599466747707215 0
493 -0.01434893275121275 -0.0502274804328858 0
494 -0.0191087950520636 -0.0543628072113095 0
495 -0.02384281322118755 -0.05839359924146621 0
496 -0.02854249638035932 -0.06231305977879386 0
497 -0.03319943637524854 -0.06611466029268979 0
498 -0.03780532802165631 -0.06979215618859491 0
499 -0.04235198911026457 -0.07333960184268148 0
500 -0.04683138012620194 -0.0767513649367309 0
501 -0.05123562361531799 -0.0800221400275597 0
502 0.07700927510767847 0.05536101898899159 0
503 0.07355973211900946 0.05106137469895951 0
504 0.06997743118752847 0.04667835282176049 0
505 0.06626799926023139 0.04221950930887361 0
506 0.06243736955359591 0.03769258277619684 0
507 0.05849176726226574 0.03310547586088847 0
508 0.05443769455738845 0.02846623617197382 0
509 0.05028191492193456 0.02378303691096111 0
510 0.0460314368665642 0.01906415718951791 0
511 0.04169349703580375 0.01431796207010601 0
512 0.03727554278092321 0.009552882429188982 0
513 0.03278521419955087 0.004777394619267825 0
514 0.02823032576464823 8.728522765677482e-11 0
515 0.02361884747563445 -0.004770795130301642 0
516 0.01895888565546929 -0.009526500903249625 0
517 0.01425866343081795 -0.01425866344976263 0
518 0.009526500919567662 -0.01895888570240779 0
519 0.004770795179966727 -0.02361884754722647 0
520 -7.059835355205379e-12 -0.02823032585899329 0
521 -0.004777394510894394 -0.03278521431602732 0
522 -0.00955288229466093 -0.03727554291782086 0
523 -0.01431796191128357 -0.04169349719157587 0
524 -0.0190641570083051 -0.04603143703914138 0
525 -0.02378303671030346 -0.05028191510619767 0
526 -0.02846623595365818 -0.05443769475207416 0
527 -0.03310547562682557 -0.05849176746535985 0
528 -0.03769258252849688 -0.06243736976242893 0
529 -0.04221950904804128 -0.06626799947549467 0
530 -0.04667835254941022 -0.06997743140713292 0
531 -0.05106137441740149 -0.07355973233934636 0
532 -0.05536101869909393 -0.07700927532796445 0
533 0.07381344217747607 0.0593534364279085 0
534 0.07019566281983745 0.05516892287104565 0
535 0.06645335557886003 0.05089280166739359 0
536 0.06259246890273995 0.04653230726741552 0
537 0.05861923690763773 0.04209487738724466 0
538 0.05454016436152585 0.03758813509050241 0
539 0.05036201100907368 0.03301987041294041 0
540 0.046091775286226 0.02839802160299654 0
541 0.04173667747038338 0.02373065600554855 0
542 0.03730414227639674 0.01902595061322897 0
543 0.03280178097592973 0.01429217238184026 0
544 0.0282373730422739 0.00953765828801232 0
545 0.02361884744413823 0.004770795283054966 0
546 0.01895426352027542 6.385491441163182e-11 0
547 0.01425179156174454 -0.004766301207284135 0
548 0.009519693138025295 -0.009519693190891285 0
549 0.004766301192832594 -0.01425179164267896 0
550 -4.142916218419224e-11 -0.0189542636255595 0
551 -0.004770795226656299 -0.02361884757198913 0
552 -0.009537658200367859 -0.02823737319238478 0
553 -0.01429217226497094 -0.03280178114661792 0
554 -0.01902595046904429 -0.0373041424661648 0
555 -0.02373065583592786 -0.0417366776771372 0
556 -0.02839802141052717 -0.0460917755044883 0
557 -0.03301987019956651 -0.0503620112377384 0
558 -0.03758813485819541 -0.05454016459863949 0
559 -0.04209487713812019 -0.05861923715053623 0
560 -0.04653230700226457 -0.06259246915240099 0
561 -0.05089280138786459 -0.06645335583322844 0
562 -0.05516892257939151 -0.07019566307524736 0
563 -0.05935343612514425 -0.07381344243329092 0
564 0.07044197975438588 0.06320361846257673 0
565 0.06666655952436781 0.0591448311353333 0
566 0.0627748414704853 0.05498620610168187 0
567 0.05877309554213352 0.05073465631106845 0
568 0.05466785675515666 0.04639731857986264 0
569 0.05046590945085348 0.04198153639814637 0
570 0.04617427094741475 0.03749484222839732 0
571 0.04180017463376918 0.03294493936599282 0
572 0.03735105255405077 0.02833968338901377 0
573 0.03283451749342747 0.02368706322025595 0
574 0.02825834464395128 0.01899518189485554 0
575 0.02363045285460566 0.01427223701359997 0
576 0.01895888558982813 0.009526501032147316 0
577 0.01425179152770131 0.004766301307810257 0
578 0.009517404927386883 3.495632949768179e-11 0
579 0.004764025801169892 -0.004764025889277962 0
580 -8.146245483731107e-11 -0.009517405043805674 0
581 -0.004766301313887819 -0.01425179166834822 0
582 -0.009526501000811979 -0.01895888575303165 0
583 -0.01427223694787899 -0.02363045304035909 0
584 -0.01899518179679562 -0.02825834485059768 0
585 -0.02368706309181335 -0.03283451771951622 0
586 -0.02833968323204446 -0.03735105279746437 0
587 -0.0329449391827432 -0.04180017488868933 0
588 -0.03749484202096297 -0.04617427121288691 0
589 -0.04198153616855839 -0.05046590972498377 0
590 -0.04639731833024421 -0.0546678570352886 0
591 -0.05073465604248525 -0.05877309582951947 0
592 -0.05498620581581727 -0.06277484176310508 0
593 -0.05914483083438959 -0.06666655981850486 0
594 -0.06320361814771204 -0.0704419800495468 0
595 0.06690264965698856 0.06690264999704018 0
596 0.06298022249365219 0.06298022283853491 0
597 0.05894972756591987 0.05894972791401346 0
598 0.05481775632438421 0.05481775667190376 0
599 0.05059114468457364 0.05059114502881285 0
600 0.04627695656111045 0.04627695690128112 0
601 0.0418824668457063 0.04188246717851216 0
602 0.03741514388028325 0.03741514420283281 0
603 0.0328826314757015 0.03288263178552015 0
604 0.02829273048743825 0.02829273077952598 0
605 0.02365338002792856 0.02365338029931517 0
606 0.01897263832187627 0.01897263856986134 0
607 0.01425866332942844 0.01425866355115214 0
608 0.009519693067993891 0.009519693260922692 0
609 0.004764025764840196 0.004764025925607658 0
610 -1.249516323742483e-10 0 0
611 -0.004764026006177504 -0.004764025918069435 0
612 -0.009519693297935193 -0.009519693245069211 0
613 -0.01425866354772787 -0.0142586635287832 0
614 -0.01897263852931294 -0.01897263854378918 0
615 -0.02365338022371324 -0.02365338027076661 0
616 -0.02829273067087121 -0.02829273074979519 0
617 -0.03288263164564636 -0.03288263175543769 0
618 -0.03741514403366272 -0.03741514417125677 0
619 -0.04188246698228701 -0.04188246714710818 0
620 -0.04627695668009057 -0.04627695687110548 0
621 -0.05059114478478972 -0.05059114500051491 0
622 -0.05481775640637676 -0.05481775664778708 0
623 -0.05894972762870205 -0.05894972789480026 0
624 -0.06298022253559729 -0.06298022282424948 0
625 -0.06690264967777371 -0.06690264998894854 0
626 0.06320361812788344 0.07044198005673409 0
627 0.05914483079431317 0.06666655983103537 0
628 0.05498620575576664 0.06277484177976589 0
629 0.05073465596403064 0.05877309585033624 0
630 0.04639731823431682 0.05466785705959358 0
631 0.04198153605456681 0.0504659097505361 0
632 0.03749484189001113 0.04617427123909457 0
633 0.03294493903557361 0.04180017491455641 0
634 0.02833968306883227 0.03735105282138938 0
635 0.02368706291556475 0.03283451774269475 0
636 0.01899518160858303 0.02825834487226192 0
637 0.01427223674833912 0.02363045305928033 0
638 0.009526500790669957 0.01895888576804894 0
639 0.004766301092306479 0.0142517916767222 0
640 -1.513751138326747e-10 0.009517405043805674 0
641 -0.0047640260425072 0.004764025881739738 0
642 -0.009517405160224462 -3.495632949768179e-11 0
643 -0.01425179174928265 -0.004766301299436278 0
644 -0.01895888579997014 -0.009526501017130009 0
645 -0.02363045305414553 -0.01427223699467873 0
646 -0.02825834483216387 -0.01899518187319131 0
647 -0.03283451766967607 -0.02368706319707741 0
648 -0.03735105271726298 -0.02833968336508876 0
649 -0.04180017478093878 -0.03294493934012575 0
650 -0.04617427107836658 -0.03749484220218965 0
651 -0.05046590956484504 -0.04198153637259405 0
652 -0.05466785685108403 -0.04639731855555763 0
653 -0.05877309562058813 -0.05073465629025169 0
654 -0.06277484153053595 -0.05498620608502104 0
655 -0.06666655956444426 -0.05914483112280278 0
656 -0.07044197977421449 -0.06320361845538941 0
657 0.05935343610653275 0.07381344243941763 0
658 0.05516892254170316 0.07019566308573075 0
659 0.05089280133131623 0.06645335584692412 0
660 0.04653230692835142 0.06259246916938979 0
661 0.04209487704770443 0.05861923717021621 0
662 0.03758813475063358 0.05454016461885683 0
663 0.0330198700758879 0.05036201125796941 0
664 0.0283980212714026 0.04609177552381191 0
665 0.02373065568146639 0.04173667769403568 0
666 0.0190259503021498 0.03730414248188405 0
667 0.01429217208663639 0.03280178116046577 0
668 0.009537658011154967 0.02823737320321486 0
669 0.004770795027213403 0.0236188475787227 0
670 -1.69138984068562e-10 0.0189542636255595 0
671 -0.004766301414413941 0.01425179163430499 0
672 -0.009519693367966601 0.009519693175037806 0
673 -0.01425179178332588 0.004766301198910163 0
674 -0.01895426373084357 -6.385490747273792e-11 0
675 -0.02361884764358113 -0.004770795276321377 0
676 -0.0282373732314868 -0.009537658277182229 0
677 -0.03280178115426428 -0.0142921723679924 0
678 -0.03730414244329124 -0.01902595059750974 0
679 -0.04173667762484485 -0.02373065598865007 0
680 -0.04609177542535058 -0.02839802158367292 0
681 -0.05036201113275229 -0.03301987039270939 0
682 -0.05454016446908767 -0.03758813507028506 0
683 -0.05861923699805351 -0.04209487736756466 0
684 -0.0625924689766531 -0.04653230725042669 0
685 -0.06645335563540841 -0.05089280165369792 0
686 -0.07019566285752581 -0.05516892286056223 0
687 -0.07381344219608757 -0.05935343642178177 0
688 0.05536101868166165 0.07700927533317228 0
689 0.05106137438203965 0.0735597323480707 0
690 0.04667835249628753 0.06997743141829667 0
691 0.04221950897857656 0.06626799948922227 0
692 0.03769258244348752 0.0624373697781778 0
693 0.03310547552559322 0.05849176748106938 0
694 0.02846623583716102 0.05443769476728126 0
695 0.02378303657914739 0.0502819151200514 0
696 0.01906415686254488 0.04603143705020765 0
697 0.01431796175370952 0.0416934972011276 0
698 0.009552882126191396 0.03727554292523426 0
699 0.00477739433202477 0.03278521432023451 0
700 -1.816302976076489e-10 0.02823032585899329 0
701 -0.004770795379409623 0.0236188475404929 0
702 -0.009526501129709663 0.01895888568739048 0
703 -0.01425866364911739 0.01425866342739368 0
704 -0.0189588858656113 0.009526500888232307 0
705 -0.02361884767507736 0.004770795123568053 0
706 -0.02823032595333835 -8.728523459566873e-11 0
707 -0.03278521437842049 -0.004777394615060632 0
708 -0.03727554294939275 -0.009552882421775571 0
709 -0.04169349719337778 -0.01431796206055428 0
710 -0.04603143701232441 -0.01906415717845165 0
711 -0.05028191505309065 -0.02378303689710737 0
712 -0.05443769467388562 -0.02846623615676672 0
713 -0.05849176736349809 -0.03310547584517893 0
714 -0.06243736963860529 -0.03769258276044797 0
715 -0.0662679993296961 -0.04221950929514601 0
716 -0.06997743124065119 -0.04667835281059675 0
717 -0.07355973215437131 -0.05106137469023518 0
718 -0.07700927512511074 -0.05536101898378374 0
719 0.0512356235989091 0.08002214003210781 0
720 0.04683138009287504 0.07675136494421268 0
721 0.04235198906015558 0.07333960185207977 0
722 0.03780532795611301 0.06979215620005921 0
723 0.03319943629501469 0.06611466030572356 0
724 0.02854249628474595 0.06231305979142862 0
725 0.02384281311109262 0.05839359925328431 0
726 0.01910879492804252 0.05436280722151782 0
727 0.01434893261328548 0.05022748044012609 0
728 0.009571779303455825 0.04599466748261335 0
729 0.004785929792465414 0.04167165178071118 0
730 -1.91817443873088e-10 0.0372659340564276 0
731 -0.00477739470659904 0.03278521428688207 0
732 -0.009537658377203724 0.02823737313146532 0
733 -0.01427223710390928 0.02363045294491497 0
734 -0.0189726386605436 0.01897263841255853 0
735 -0.02363045314958965 0.01427223683864844 0
736 -0.02823737329240627 0.009537658100346364 0
737 -0.03278521440756573 0.004777394419355978 0
738 -0.03726593414116081 -1.070842373107617e-10 0
739 -0.04167165183164233 -0.004785930101470486 0
740 -0.04599466750189627 -0.009571779621311189 0
741 -0.05022748042951854 -0.01434893293777542 0
742 -0.05436280718182113 -0.01910879525190373 0
743 -0.05839359918726326 -0.02384281343403973 0
744 -0.06231305970139688 -0.02854249660516767 0
745 -0.06611466019387366 -0.03319943661032386 0
746 -0.06979215606865512 -0.03780532826876029 0
747 -0.07333960170299623 -0.04235198936831215 0
748 -0.07675136477949729 -0.04683138039266962 0
749 -0.08002213985357606 -0.0512356238905057 0
750 0.04698682896949519 0.08284513860888958 0
751 0.04248842844607081 0.07976357360727693 0
752 0.03792311045541037 0.07653279054186125 0
753 0.03329907395406594 0.07315777335596937 0
754 0.02862465935599246 0.06964385346741696 0
755 0.02390832844238543 0.06599669692500693 0
756 0.01915864397254889 0.06222229075157448 0
757 0.01438424905351162 0.05832692852434563 0
758 0.009593846329653894 0.05431719522047938 0
759 0.004796177007881014 0.05019995134359902 0
760 -1.975385202634961e-10 0.04598231640473974 0
761 -0.004785930182874158 0.04167165175023865 0
762 -0.009552882509717048 0.03727554286145128 0
763 -0.01429217246408361 0.03280178105817307 0
764 -0.01899518197812973 0.02825834472722545 0
765 -0.02365338038293322 0.02365338011154661 0
766 -0.0282583449555361 0.0189951816918572 0
767 -0.03280178124270911 0.01429217216887974 0
768 -0.03727554300576233 0.009552882206719453 0
769 -0.04167165185884363 0.004785929870597866 0
770 -0.04598231647980203 -1.224762374851807e-10 0
771 -0.05019995138730469 -0.004796177334413395 0
772 -0.05431719523457029 -0.009593846660472288 0
773 -0.05832692850938563 -0.01438424938111521 0
774 -0.0622222907104447 -0.01915864429676866 0
775 -0.06599669686007445 -0.02390832876166351 0
776 -0.0696438533808944 -0.02862465966776183 0
777 -0.07315777325032571 -0.03329907426098216 0
778 -0.07653279041901269 -0.03792311075568616 0
779 -0.07976357346925972 -0.04248842873582352 0
780 -0.08284513845763913 -0.04698682924900874 0
781 0.04262451018656335 0.0854718305409177 0
782 0.03804228033933384 0.08258980331872014 0
783 0.03340136308430794 0.07955032797316841 0
784 0.02871027887922593 0.07635806694656549 0
785 0.02397766903773073 0.07301805075697121 0
786 0.01921227491432517 0.06953566587963378 0
787 0.01442291684183082 0.0659166417641137 0
788 0.009618472880326575 0.06216703703464545 0
789 0.004807857440876001 0.05829322490154377 0
790 -1.993522846799323e-10 0.05430187779854388 0
791 -0.004796177405738351 0.05019995131597974 0
792 -0.009571779698661811 0.04599466742454564 0
793 -0.01431796214411717 0.0416934971098149 0
794 -0.0190259506888166 0.03730414235198436 0
795 -0.02368706329679099 0.03283451756996251 0
796 -0.02829273085637708 0.02829273056428933 0
797 -0.03283451781922979 0.02368706299209978 0
798 -0.03730414255747168 0.01902595037773743 0
799 -0.04169349727513875 0.01431796182772067 0
800 -0.04599466755442277 0.009571779375265238 0
801 -0.05019995141258674 0.004796177076868718 0
802 -0.05430187786409672 -1.3379945068559e-10 0
803 -0.05829322493776962 -0.004807857776063542 0
804 -0.06216703704188747 -0.009618473209828459 0
805 -0.06591664174536369 -0.01442291716558864 0
806 -0.0695356658373112 -0.01921227523083346 0
807 -0.07301805069331091 -0.02397766934444466 0
808 -0.07635806686422997 -0.02871027917899469 0
809 -0.07955032787411651 -0.03340136337538675 0
810 -0.08258980320498303 -0.0380422806178351 0
811 -0.08547183041454706 -0.04262451045288718 0
812 0.03815881611521629 0.08789624823637457 0
813 0.03350294526163489 0.08522394711132236 0
814 0.02879661705970651 0.08238596780335974 0
815 0.02404867346835871 0.07938665125376423 0
816 0.01926805670092342 0.07623072708084057 0
817 0.01446378768520875 0.07292330218627943 0
818 0.009644944327553702 0.06946984844636614 0
819 0.00482063964109683 0.06587618953235293 0
820 -1.96421576920125e-10 0.06214848688770311 0
821 -0.004807857837576611 0.05829322487625654 0
822 -0.00959384672740177 0.05431719516764081 0
823 -0.01434893301035921 0.05022748035693474 0
824 -0.01906415725686489 0.04603143693391118 0
825 -0.02373065607433005 0.04173667753916487 0
826 -0.02833968345865736 0.03735105262369439 0
827 -0.03288263185545134 0.03288263154563272 0
828 -0.03735105289103297 0.02833968313847586 0
829 -0.04173667776281718 0.02373065575024789 0
830 -0.0460314371175546 0.01906415692989187 0
831 -0.05022748050546959 0.01434893267862896 0
832 -0.05431719528325522 0.009593846392429752 0
833 -0.05829322496119404 0.004807857500526268 0
834 -0.06214848694367738 -1.404473169708265e-10 0
835 -0.06587618955950307 -0.004820639969858743 0
836 -0.06946984844778893 -0.009644944648255233 0
837 -0.07292330216444572 -0.01446378799639583 0
838 -0.07623072703800944 -0.01926805700007545 0
839 -0.0793866511927806 -0.02404867375850725 0
840 -0.08238596772622606 -0.02879661733915041 0
841 -0.08522394702007106 -0.03350294552648784 0
842 -0.08789624813316982 -0.0381588163659909 0
843 0.03360014467969731 0.09011291138886601 0
844 0.02888065721682663 0.0876603607580257 0
845 0.02411894246505161 0.08503390188473008 0
846 0.01932416388448545 0.08223755420923021 0
847 0.0145055645881497 0.07927574645007698 0
848 0.009672445077155077 0.07615330593540158 0
849 0.004834140831357421 0.07287544696821405 0
850 -1.830361313903683e-10 0.06944775826679379 0
851 -0.004820640021615408 0.0658761895077464 0
852 -0.0096184732667066 0.06216703698500933 0
853 -0.01438424944300164 0.05832692844749919 0
854 -0.01910879531901843 0.05436280711470642 0
855 -0.02378303696961228 0.05028191498058573 0
856 -0.02839802166289701 0.04609177534612648 0
857 -0.03294493942664409 0.04180017469442045 0
858 -0.03741514426373452 0.03741514394118495 0
859 -0.04180017497520767 0.03294493909622485 0
860 -0.04609177558371239 0.02839802133130308 0
861 -0.05028191517870258 0.02378303663779857 0
862 -0.0543628072784242 0.01910879498494888 0
863 -0.05832692857901589 0.01438424910818189 0
864 -0.06216703708659371 0.00961847293227484 0
865 -0.06587618958109979 0.004820639689843718 0
866 -0.06944775831186766 -1.379622527331037e-10 0
867 -0.0728754469882046 -0.004834141141728535 0
868 -0.07615330593283005 -0.009672445375495267 0
869 -0.07927574642722868 -0.01450556487196457 0
870 -0.08223755416912143 -0.01932416415697794 0
871 -0.08503390182940788 -0.02411894272456519 0
872 -0.08766036068953012 -0.02888065745948254 0
873 -0.09011291130946998 -0.03360014490611699 0
874 0.028959117779538 0.0921168401986395 0
875 0.0241858500343842 0.08989387638898075 0
876 0.01937858505977395 0.08748877427732077 0
877 0.01454680781700508 0.08490523180288317 0
878 0.009700062318789698 0.08214737678446542 0
879 0.004847928639538913 0.07921975697663704 0
880 -1.673747945796222e-10 0.07612732910913222 0
881 -0.004834141182666604 0.07287544694726655 0
882 -0.009644944695262912 0.06946984840078126 0
883 -0.01442291721724786 0.06591664169370444 0
884 -0.01915864435297662 0.06222229065423673 0
885 -0.02384281349499624 0.05839359912630674 0
886 -0.02846623622261885 0.05443769460803349 0
887 -0.03301987046466419 0.0503620110607975 0
888 -0.0374948422807694 0.04617427099978685 0
889 -0.04188246723110053 0.04188246689829465 0
890 -0.04617427129146663 0.03749484194238322 0
891 -0.05036201130969319 0.03301987012761171 0
892 -0.05443769481792628 0.02846623588780606 0
893 -0.05839359930242271 0.02384281316023103 0
894 -0.06222229079878203 0.01915864401975643 0
895 -0.06591664180897078 0.01442291688668791 0
896 -0.06946984848845886 0.009644944369646431 0
897 -0.07287544700713515 0.00483414087027852 0
898 -0.07612732914448206 -1.32024953469756e-10 0
899 -0.07921975699003879 -0.004847928924596104 0
900 -0.0821473767782326 -0.009700062587038105 0
901 -0.08490523178019257 -0.01454680807180822 0
902 -0.08748877424026515 -0.01937858529952091 0
903 -0.08989387633961371 -0.02418585025520985 0
904 -0.09211684013933924 -0.02895911798216902 0
905 0.02424655572743716 0.09390356735636646 0
906 0.01942913226035729 0.09191981492797802 0
907 0.01458594162326494 0.08974569413805082 0
908 0.00972679027864114 0.08738458142477974 0
909 0.004861523138889139 0.08484030370721031 0
910 -1.482820186082812e-10 0.08211712916634793 0
911 -0.004847928955983677 0.0792197569586512 0
912 -0.009672445411844699 0.07615330589648062 0
913 -0.01446378803813455 0.07292330212270702 0
914 -0.01921227527670234 0.06953566579144232 0
915 -0.02390832881157129 0.06599669681016666 0
916 -0.02854249665929174 0.06231305964727282 0
917 -0.03310547590364987 0.05849176730502713 0
918 -0.03758813513417465 0.0545401644051981 0
919 -0.04198153644236599 0.05046590949507307 0
920 -0.04627695694568335 0.04627695660551268 0
921 -0.05046590979475574 0.04198153609878644 0
922 -0.05454016466252906 0.03758813479430582 0
923 -0.05849176752383078 0.03310547556835462 0
924 -0.06231305983291793 0.02854249632623525 0
925 -0.06599669696486596 0.02390832848224445 0
926 -0.06953566591750825 0.01921227495219962 0
927 -0.07292330222181982 0.01446378772074914 0
928 -0.07615330596826404 0.009672445110017547 0
929 -0.07921975700648413 0.00484792866938605 0
930 -0.08211712919284954 -1.217803670405804e-10 0
931 -0.08484030371472419 -0.004861523389980122 0
932 -0.08738458141663281 -0.00972679051427427 0
933 -0.08974569411638221 -0.0145859418418759 0
934 -0.09191981489486109 -0.01942913245810052 0
935 -0.09390356731428115 -0.02424655590514108 0
936 0.0194734511625032 0.09546914881400891 0
937 0.01462126158072084 0.09373399737406897 0
938 0.009751534888371058 0.09180024751305578 0
939 0.004874399049116936 0.0896709541681346 0
940 -1.24946419530203e-10 0.08734964335859961 0
941 -0.004861523412814196 0.08484030369189012 0
942 -0.00970006261408194 0.08214737675118877 0
943 -0.01450556490328358 0.07927574639590967 0
944 -0.01926805703603791 0.07623072700204697 0
945 -0.02397766938396572 0.07301805065378988 0
946 -0.02862465971076283 0.06964385333789341 0
947 -0.03319943665695768 0.06611466014723985 0
948 -0.0376925828108271 0.06243736958822616 0
949 -0.04209487742261255 0.05861923694300562 0
950 -0.04639731861567383 0.05466785679096784 0
951 -0.05059114506477193 0.05059114472053272 0
952 -0.05466785709540479 0.04639731827012802 0
953 -0.05861923720558411 0.0420948770830723 0
954 -0.06243736981280804 0.03769258247811777 0
955 -0.0661146603393236 0.03319943632861473 0
956 -0.06964385349969671 0.02862465938827221 0
957 -0.07301805078764376 0.02397766906840328 0
958 -0.07623072710962288 0.01926805672970574 0
959 -0.07927574647669058 0.01450556461476331 0
960 -0.08214737680863705 0.009700062342961356 0
961 -0.08484030372867261 0.004861523160351452 0
962 -0.08734964337709175 -1.064542863582485e-10 0
963 -0.08967095417180297 -0.004874399263108817 0
964 -0.09180024750408715 -0.009751535083437381 0
965 -0.093733997354562 -0.01462126175304144 0
966 -0.09546914878654197 -0.0194734513130048 0
967 0.0146509425728268 0.0968101732828978 0
968 0.009773118910111874 0.09533275486524323 0
969 0.004885988196286023 0.0936485079669736 0
970 -1.038063229125141e-10 0.09176016602422302 0
971 -0.004874399278377083 0.0896709541565347 0
972 -0.009726790533127515 0.08738458139777959 0
973 -0.01454680809413731 0.08490523175786351 0
974 -0.01932416418283688 0.08223755414326253 0
975 -0.02404867378820012 0.07938665116308774 0
976 -0.02871027921162576 0.07635806683159889 0
977 -0.0332990742964865 0.07315777321482139 0
978 -0.03780532830726408 0.06979215603015132 0
979 -0.04221950933674218 0.06626799928809995 0
980 -0.04653230729587768 0.06259246893120213 0
981 -0.05073465633988739 0.05877309557095244 0
982 -0.0548177567008417 0.05481775635332214 0
983 -0.05877309587915515 0.05073465599284956 0
984 -0.06259246919785197 0.04653230695681358 0
985 -0.06626799951709081 0.0422195090064451 0
986 -0.06979215622709871 0.03780532798315252 0
987 -0.07315777338194637 0.03329907398004294 0
988 -0.07635806697124911 0.02871027890390956 0
989 -0.07938665127692671 0.02404867349152117 0
990 -0.08223755423064741 0.01932416390590264 0
991 -0.0849052318223352 0.01454680783645712 0
992 -0.08738458144205145 0.009726790295912854 0
993 -0.08967095418301611 0.004874399063998414 0
994 -0.0917601660365101 -9.151924357242436e-11 0
995 -0.0936485079673017 -0.004885988371090255 0
996 -0.09533275485574201 -0.009773119060605635 0
997 -0.09681017326624061 -0.01465094270003182 0
998 0.009790287478006679 0.09792377044833583 0
999 0.004895682194789393 0.096712937513278 0
1000 -8.008270435677645e-11 0.09528704603806772 0
1001 -0.004885988380585035 0.09364850795780688 0
1002 -0.009751535095235856 0.09180024749228866 0
1003 -0.01458594185644465 0.08974569410181348 0
1004 -0.0193785853167756 0.08748877422301046 0
1005 -0.02411894274454756 0.08503390180942549 0
1006 -0.02879661736209543 0.08238596770328104 0
1007 -0.03340136340060224 0.079550327848901 0
1008 -0.03792311078312194 0.07653279039157687 0
1009 -0.04235198939806576 0.07333960167324263 0
1010 -0.04667835284273997 0.06997743120850797 0
1011 -0.05089280168881995 0.0664533556002864 0
1012 -0.05498620612337678 0.06277484149218021 0
1013 -0.05894972793579795 0.05894972758770435 0
1014 -0.06277484180146081 0.05498620577746154 0
1015 -0.06645335586835047 0.05089280135274258 0
1016 -0.06997743143927614 0.04667835251726701 0
1017 -0.07333960187243511 0.04235198908051095 0
1018 -0.07653279056141678 0.03792311047496588 0
1019 -0.07955032799175027 0.03340136310288978 0
1020 -0.08238596782079646 0.02879661707714324 0
1021 -0.08503390190085298 0.02411894248117449 0
1022 -0.08748877429196432 0.01937858507441747 0
1023 -0.08974569415105298 0.01458594163626711 0
1024 -0.09180024752425857 0.009751534899573849 0
1025 -0.09364850797622332 0.004885988205535752 0
1026 -0.09528704604521537 -7.293502607419455e-11 0
1027 -0.0967129375113232 -0.004895682322022969 0
1028 -0.09792377044004356 -0.009790287580569594 0
1029 0.004902835291258584 0.09880761788989495 0
1030 -5.173167623440111e-11 0.09787192199799928 0
1031 -0.004895682326924682 0.09671293750642154 0
1032 -0.009773119067116937 0.09533275484923072 0
1033 -0.01462126176113256 0.09373399734647091 0
1034 -0.01942913246809143 0.09191981488487015 0
1035 -0.02418585026704271 0.0898938763277808 0
1036 -0.02888065747318598 0.08766036067582667 0
1037 -0.033502945542223 0.0852239470043359 0
1038 -0.0380422806351273 0.08258980318769084 0
1039 -0.04248842875463836 0.07976357345044488 0
1040 -0.04683138041307396 0.07675136475909294 0
1041 -0.05106137471227828 0.07355973213232823 0
1042 -0.05516892288464811 0.07019566283343995 0
1043 -0.05914483114910625 0.0666665595381408 0
1044 -0.06298022285236474 0.062980222507482 0
1045 -0.06666655984480835 0.05914483080808612 0
1046 -0.07019566309933321 0.05516892255530562 0
1047 -0.07355973236138943 0.05106137439535839 0
1048 -0.07675136495713522 0.04683138010579758 0
1049 -0.07976357361969172 0.04248842845848559 0
1050 -0.08258980333051678 0.03804228035113047 0
1051 -0.08522394712239202 0.03350294527270455 0
1052 -0.08766036076826131 0.0288806572270622 0
1053 -0.08989387639827712 0.02418585004368059 0
1054 -0.09191981493623239 0.01942913226861168 0
1055 -0.09373399738118099 0.0146212615878329 0
1056 -0.09533275487111538 0.009773118915984032 0
1057 -0.09671293751781573 0.004895682199327079 0
1058 -0.09787192200111113 -4.861983905757317e-11 0
1059 -0.09880761788757811 -0.004902835365566156 0
1060 -2.398928191510441e-11 0.09945994667522276 0
1061 -0.004902835367164217 0.09880761788598007 0
1062 -0.009790287583086831 0.09792377043752633 0
1063 -0.01465094270337565 0.09681017326289679 0
1064 -0.01947345131715994 0.09546914878238681 0
1065 -0.02424655591027184 0.09390356730915038 0
1066 -0.0289591179882457 0.09211684013326257 0
1067 -0.03360014491315429 0.09011291130243268 0
1068 -0.03815881637407158 0.08789624812508917 0
1069 -0.04262451046176746 0.08547183040566678 0
1070 -0.04698682925867097 0.0828451384479769 0
1071 -0.0512356239009842 0.08002213984309756 0
1072 -0.0553610189951038 0.07700927511379066 0
1073 -0.05935343643415091 0.07381344218371848 0
1074 -0.06320361846889737 0.07044197976070654 0
1075 -0.06690265000338691 0.06690264966333531 0
1076 -0.07044198006305474 0.06320361813420408 0
1077 -0.07381344244566004 0.05935343611277515 0
1078 -0.07700927533928453 0.05536101868777387 0
1079 -0.0800221400380382 0.0512356236048395 0
1080 -0.08284513861458689 0.04698682897519255 0
1081 -0.08547183054633137 0.04262451019197704 0
1082 -0.08789624824145459 0.03815881612029635 0
1083 -0.09011291139356327 0.03360014468439458 0
1084 -0.09211684020290575 0.02895911778380427 0
1085 -0.09390356736015454 0.02424655573122524 0
1086 -0.09546914881727275 0.01947345116576705 0
1087 -0.09681017328559266 0.01465094257552164 0
1088 -0.09792377045041829 0.009790287480089106 0
1089 -0.09880761789132306 0.00490283529268666 0
1090 -0.09945994667595616 -2.325590414686829e-11 0
$EndNodes
$Elements
1157
1 15 2 0 1 1
2 15 2 0 2 2
3 15 2 0 3 3
4 15 2 0 4 4
5 15 2 0 5 5
6 1 2 0 1 2 6
7 1 2 0 1 6 7
8 1 2 0 1 7 8
9 1 2 0 1 8 9
10 1 2 0 1 9 10
11 1 2 0 1 10 11
12 1 2 0 1 11 12
13 1 2 0 1 12 13
14 1 2 0 1 13 14
15 1 2 0 1 14 15
16 1 2 0 1 15 16
17 1 2 0 1 16 17
18 1 2 0 1 17 18
19 1 2 0 1 18 19
20 1 2 0 1 19 20
21 1 2 0 1 20 21
22 1 2 0 1 21 22
23 1 2 0 1 22 23
24 1 2 0 1 23 24
25 1 2 0 1 24 25
26 1 2 0 1 25 26
27 1 2 0 1 26 27
28 1 2 0 1 27 28
29 1 2 0 1 28 29
30 1 2 0 1 29 30
31 1 2 0 1 30 31
32 1 2 0 1 31 32
33 1 2 0 1 32 33
34 1 2 0 1 33 34
35 1 2 0 1 34 35
36 1 2 0 1 35 36
37 1 2 0 1 36 3
38 1 2 0 2 3 37
39 1 2 0 2 37 38
40 1 2 0 2 38 39
41 1 2 0 2 39 40
42 1 2 0 2 40 41
43 1 2 0 2 41 42
44 1 2 0 2 42 43
45 1 2 0 2 43 44
46 1 2 0 2 44 45
47 1 2 0 2 45 46
48 1 2 0 2 46 47
49 1 2 0 2 47 48
50 1 2 0 2 48 49
51 1 2 0 2 49 50
52 1 2 0 2 50 51
53 1 2 0 2 51 52
54 1 2 0 2 52 53
55 1 2 0 2 53 54
56 1 2 0 2 54 55
57 1 2 0 2 55 56
58 1 2 0 2 56 57
59 1 2 0 2 57 58
60 1 2 0 2 58 59
61 1 2 0 2 59 60
62 1 2 0 2 60 61
63 1 2 0 2 61 62
64 1 2 0 2 62 63
65 1 2 0 2 63 64
66 1 2 0 2 64 65
67 1 2 0 2 65 66
68 1 2 0 2 66 67
69 1 2 0 2 67 4
70 1 2 0 3 4 68
71 1 2 0 3 68 69
72 1 2 0 3 69 70
73 1 2 0 3 70 71
74 1 2 0 3 71 72
75 1 2 0 3 72 73
76 1 2 0 3 73 74
77 1 2 0 3 74 75
78 1 2 0 3 75 76
79 1 2 0 3 76 77
80 1 2 0 3 77 78
81 1 2 0 3 78 79
82 1 2 0 3 79 80
83 1 2 0 3 80 81
84 1 2 0 3 81 82
85 1 2 0 3 82 83
86 1 2 0 3 83 84
87 1 2 0 3 84 85
88 1 2 0 3 85 86
89 1 2 0 3 86 87
90 1 2 0 3 87 88
91 1 2 0 3 88 89
92 1 2 0 3 89 90
93 1 2 0 3 90 91
94 1 2 0 3 91 92
95 1 2 0 3 92 93
96 1 2 0 3 93 94
97 1 2 0 3 94 95
98 1 2 0 3 95 96
99 1 2 0 3 96 97
100 1 2 0 3 97 98
101 1 2 0 3 98 5
102 1 2 0 4 5 99
103 1 2 0 4 99 100
104 1 2 0 4 100 101
105 1 2 0 4 101 102
106 1 2 0 4 102 103
107 1 2 0 4 103 104
108 1 2 0 4 104 105
109 1 2 0 4 105 106
110 1 2 0 4 106 107
111 1 2 0 4 107 108
112 1 2 0 4 108 109
113 1 2 0 4 109 110
114 1 2 0 4 110 111
115 1 2 0 4 111 112
116 1 2 0 4 112 113
117 1 2 0 4 113 114
118 1 2 0 4 114 115
119 1 2 0 4 115 116
120 1 2 0 4 116 117
121 1 2 0 4 117 118
122 1 2 0 4 118 119
123 1 2 0 4 119 120
124 1 2 0 4 120 121
125 1 2 0 4 121 122
126 1 2 0 4 122 123
127 1 2 0 4 123 124
128 1 2 0 4 124 125
129 1 2 0 4 125 126
130 1 2 0 4 126 127
131 1 2 0 4 127 128
132 1 2 0 4 128 129
133 1 2 0 4 129 2
134 3 2 0 11 2 6 130 129
135 3 2 0 11 129 130 131 128
136 3 2 0 11 128 131 132 127
137 3 2 0 11 127 132 133 126
138 3 2 0 11 126 133 134 125
139 3 2 0 11 125 134 135 124
140 3 2 0 11 124 135 136 123
141 3 2 0 11 123 136 137 122
142 3 2 0 11 122 137 138 121
143 3 2 0 11 121 138 139 120
144 3 2 0 11 120 139 140 119
145 3 2 0 11 119 140 141 118
146 3 2 0 11 118 141 142 117
147 3 2 0 11 117 142 143 116
148 3 2 0 11 116 143 144 115
149 3 2 0 11 115 144 145 114
150 3 2 0 11 114 145 146 113
151 3 2 0 11 113 146 147 112
152 3 2 0 11 112 147 148 111
153 3 2 0 11 111 148 149 110
154 3 2 0 11 110 149 150 109
155 3 2 0 11 109 150 151 108
156 3 2 0 11 108 151 152 107
157 3 2 0 11 107 152 153 106
158 3 2 0 11 106 153 154 105
159 3 2 0 11 105 154 155 104
160 3 2 0 11 104 155 156 103
161 3 2 0 11 103 156 157 102
162 3 2 0 11 102 157 158 101
163 3 2 0 11 101 158 159 100
164 3 2 0 11 100 159 160 99
165 3 2 0 11 99 160 98 5
166 3 2 0 11 6 7 161 130
167 3 2 0 11 130 161 162 131
168 3 2 0 11 131 162 163 132
169 3 2 0 11 132 163 164 133
170 3 2 0 11 133 164 165 134
171 3 2 0 11 134 165 166 135
172 3 2 0 11 135 166 167 136
173 3 2 0 11 136 167 168 137
174 3 2 0 11 137 168 169 138
175 3 2 0 11 138 169 170 139
176 3 2 0 11 139 170 171 140
177 3 2 0 11 140 171 172 141
178 3 2 0 11 141 172 173 142
179 3 2 0 11 142 173 174 143
180 3 2 0 11 143 174 175 144
181 3 2 0 11 144 175 176 145
182 3 2 0 11 145 176 177 146
183 3 2 0 11 146 177 178 147
184 3 2 0 11 147 178 179 148
185 3 2 0 11 148 179 180 149
186 3 2 0 11 149 180 181 150
187 3 2 0 11 150 181 182 151
188 3 2 0 11 151 182 183 152
189 3 2 0 11 152 183 184 153
190 3 2 0 11 153 184 185 154
191 3 2 0 11 154 185 186 155
192 3 2 0 11 155 186 187 156
193 3 2 0 11 156 187 188 157
194 3 2 0 11 157 188 189 158
195 3 2 0 11 158 189 190 159
196 3 2 0 11 159 190 191 160
197 3 2 0 11 160 191 97 98
198 3 2 0 11 7 8 192 161
199 3 2 0 11 161 192 193 162
200 3 2 0 11 162 193 194 163
201 3 2 0 11 163 194 195 164
202 3 2 0 11 164 195 196 165
203 3 2 0 11 165 196 197 166
204 3 2 0 11 166 197 198 167
205 3 2 0 11 167 198 199 168
206 3 2 0 11 168 199 200 169
207 3 2 0 11 169 200 201 170
208 3 2 0 11 170 201 202 171
209 3 2 0 11 171 202 203 172
210 3 2 0 11 172 203 204 173
211 3 2 0 11 173 204 205 174
212 3 2 0 11 174 205 206 175
213 3 2 0 11 175 206 207 176
214 3 2 0 11 176 207 208 177
215 3 2 0 11 177 208 209 178
216 3 2 0 11 178 209 210 179
217 3 2 0 11 179 210 211 180
218 3 2 0 11 180 211 212 181
219 3 2 0 11 181 212 213 182
220 3 2 0 11 182 213 214 183
221 3 2 0 11 183 214 215 184
222 3 2 0 11 184 215 216 185
223 3 2 0 11 185 216 217 186
224 3 2 0 11 186 217 218 187
225 3 2 0 11 187 218 219 188
226 3 2 0 11 188 219 220 189
227 3 2 0 11 189 220 221 190
228 3 2 0 11 190 221 222 191
229 3 2 0 11 191 222 96 97
230 3 2 0 11 8 9 223 192
231 3 2 0 11 192 223 224 193
232 3 2 0 11 193 224 225 194
233 3 2 0 11 194 225 226 195
234 3 2 0 11 195 226 227 196
235 3 2 0 11 196 227 228 197
236 3 2 0 11 197 228 229 198
237 3 2 0 11 198 229 230 199
238 3 2 0 11 199 230 231 200
239 3 2 0 11 200 231 232 201
240 3 2 0 11 201 232 233 202
241 3 2 0 11 202 233 234 203
242 3 2 0 11 203 234 235 204
243 3 2 0 11 204 235 236 205
244 3 2 0 11 205 236 237 206
245 3 2 0 11 206 237 238 207
246 3 2 0 11 207 238 239 208
247 3 2 0 11 208 239 240 209
248 3 2 0 11 209 240 241 210
249 3 2 0 11 210 241 242 211
250 3 2 0 11 211 242 243 212
251 3 2 0 11 212 243 244 213
252 3 2 0 11 213 244 245 214
253 3 2 0 11 214 245 246 215
254 3 2 0 11 215 246 247 216
255 3 2 0 11 216 247 248 217
256 3 2 0 11 217 248 249 218
257 3 2 0 11 218 249 250 219
258 3 2 0 11 219 250 251 220
259 3 2 0 11 220 251 252 221
260 3 2 0 11 221 252 253 222
261 3 2 0 11 222 253 95 96
262 3 2 0 11 9 10 254 223
263 3 2 0 11 223 254 255 224
264 3 2 0 11 224 255 256 225
265 3 2 0 11 225 256 257 226
266 3 2 0 11 226 257 258 227
267 3 2 0 11 227 258 259 228
268 3 2 0 11 228 259 260 229
269 3 2 0 11 229 260 261 230
270 3 2 0 11 230 261 262 231
271 3 2 0 11 231 262 263 232
272 3 2 0 11 232 263 264 233
273 3 2 0 11 233 264 265 234
274 3 2 0 11 234 265 266 235
275 3 2 0 11 235 266 267 236
276 3 2 0 11 236 267 268 237
277 3 2 0 11 237 268 269 238
278 3 2 0 11 238 269 270 239
279 3 2 0 11 239 270 271 240
280 3 2 0 11 240 271 272 241
281 3 2 0 11 241 272 273 242
282 3 2 0 11 242 273 274 243
283 3 2 0 11 243 274 275 244
284 3 2 0 11 244 275 276 245
285 3 2 0 11 245 276 277 246
286 3 2 0 11 246 277 278 247
287 3 2 0 11 247 278 279 248
288 3 2 0 11 248 279 280 249
289 3 2 0 11 249 280 281 250
290 3 2 0 11 250 281 282 251
291 3 2 0 11 251 282 283 252
292 3 2 0 11 252 283 284 253
293 3 2 0 11 253 284 94 95
294 3 2 0 11 10 11 285 254
295 3 2 0 11 254 285 286 255
296 3 2 0 11 255 286 287 256
297 3 2 0 11 256 287 288 257
298 3 2 0 11 257 288 289 258
299 3 2 0 11 258 289 290 259
300 3 2 0 11 259 290 291 260
301 3 2 0 11 260 291 292 261
302 3 2 0 11 261 292 293 262
303 3 2 0 11 262 293 294 263
304 3 2 0 11 263 294 295 264
305 3 2 0 11 264 295 296 265
306 3 2 0 11 265 296 297 266
307 3 2 0 11 266 297 298 267
308 3 2 0 11 267 298 299 268
309 3 2 0 11 268 299 300 269
310 3 2 0 11 269 300 301 270
311 3 2 0 11 270 301 302 271
312 3 2 0 11 271 302 303 272
313 3 2 0 11 272 303 304 273
314 3 2 0 11 273 304 305 274
315 3 2 0 11 274 305 306 275
316 3 2 0 11 275 306 307 276
317 3 2 0 11 276 307 308 277
318 3 2 0 11 277 308 309 278
319 3 2 0 11 278 309 310 279
320 3 2 0 11 279 310 311 280
321 3 2 0 11 280 311 312 281
322 3 2 0 11 281 312 313 282
323 3 2 0 11 282 313 314 283
324 3 2 0 11 283 314 315 284
325 3 2 0 11 284 315 93 94
326 3 2 0 11 11 12 316 285
327 3 2 0 11 285 316 317 286
328 3 2 0 11 286 317 318 287
329 3 2 0 11 287 318 319 288
330 3 2 0 11 288 319 320 289
331 3 2 0 11 289 320 321 290
332 3 2 0 11 290 321 322 291
333 3 2 0 11 291 322 323 292
334 3 2 0 11 292 323 324 293
335 3 2 0 11 293 324 325 294
336 3 2 0 11 294 325 326 295
337 3 2 0 11 295 326 327 296
338 3 2 0 11 296 327 328 297
339 3 2 0 11 297 328 329 298
340 3 2 0 11 298 329 330 299
341 3 2 0 11 299 330 331 300
342 3 2 0 11 300 331 332 301
343 3 2 0 11 301 332 333 302
344 3 2 0 11 302 333 334 303
345 3 2 0 11 303 334 335 304
346 3 2 0 11 304 335 336 305
347 3 2 0 11 305 336 337 306
348 3 2 0 11 306 337 338 307
349 3 2 0 11 307 338 339 308
350 3 2 0 11 308 339 340 309
351 3 2 0 11 309 340 341 310
352 3 2 0 11 310 341 342 311
353 3 2 0 11 311 342 343 312
354 3 2 0 11 312 343 344 313
355 3 2 0 11 313 344 345 314
356 3 2 0 11 314 345 346 315
357 3 2 0 11 315 346 92 93
358 3 2 0 11 12 13 347 316
359 3 2 0 11 316 347 348 317
360 3 2 0 11 317 348 349 318
361 3 2 0 11 318 349 350 319
362 3 2 0 11 319 350 351 320
363 3 2 0 11 320 351 352 321
364 3 2 0 11 321 352 353 322
365 3 2 0 11 322 353 354 323
366 3 2 0 11 323 354 355 324
367 3 2 0 11 324 355 356 325
368 3 2 0 11 325 356 357 326
369 3 2 0 11 326 357 358 327
370 3 2 0 11 327 358 359 328
371 3 2 0 11 328 359 360 329
372 3 2 0 11 329 360 361 330
373 3 2 0 11 330 361 362 331
374 3 2 0 11 331 362 363 332
375 3 2 0 11 332 363 364 333
376 3 2 0 11 333 364 365 334
377 3 2 0 11 334 365 366 335
378 3 2 0 11 335 366 367 336
379 3 2 0 11 336 367 368 337
380 3 2 0 11 337 368 369 338
381 3 2 0 11 338 369 370 339
382 3 2 0 11 339 370 371 340
383 3 2 0 11 340 371 372 341
384 3 2 0 11 341 372 373 342
385 3 2 0 11 342 373 374 343
386 3 2 0 11 343 374 375 344
387 3 2 0 11 344 375 376 345
388 3 2 0 11 345 376 377 346
389 3 2 0 11 346 377 91 92
390 3 2 0 11 13 14 378 347
391 3 2 0 11 347 378 379 348
392 3 2 0 11 348 379 380 349
393 3 2 0 11 349 380 381 350
394 3 2 0 11 350 381 382 351
395 3 2 0 11 351 382 383 352
396 3 2 0 11 352 383 384 353
397 3 2 0 11 353 384 385 354
398 3 2 0 11 354 385 386 355
399 3 2 0 11 355 386 387 356
400 3 2 0 11 356 387 388 357
401 3 2 0 11 357 388 389 358
402 3 2 0 11 358 389 390 359
403 3 2 0 11 359 390 391 360
404 3 2 0 11 360 391 392 361
405 3 2 0 11 361 392 393 362
406 3 2 0 11 362 393 394 363
407 3 2 0 11 363 394 395 364
408 3 2 0 11 364 395 396 365
409 3 2 0 11 365 396 397 366
410 3 2 0 11 366 397 398 367
411 3 2 0 11 367 398 399 368
412 3 2 0 11 368 399 400 369
413 3 2 0 11 369 400 401 370
414 3 2 0 11 370 401 402 371
415 3 2 0 11 371 402 403 372
416 3 2 0 11 372 403 404 373
417 3 2 0 11 373 404 405 374
418 3 2 0 11 374 405 406 375
419 3 2 0 11 375 406 407 376
420 3 2 0 11 376 407 408 377
421 3 2 0 11 377 408 90 91
422 3 2 0 11 14 15 409 378
423 3 2 0 11 378 409 410 379
424 3 2 0 11 379 410 411 380
425 3 2 0 11 380 411 412 381
426 3 2 0 11 381 412 413 382
427 3 2 0 11 382 413 414 383
428 3 2 0 11 383 414 415 384
429 3 2 0 11 384 415 416 385
430 3 2 0 11 385 416 417 386
431 3 2 0 11 386 417 418 387
432 3 2 0 11 387 418 419 388
433 3 2 0 11 388 419 420 389
434 3 2 0 11 389 420 421 390
435 3 2 0 11 390 421 422 391
436 3 2 0 11 391 422 423 392
437 3 2 0 11 392 423 424 393
438 3 2 0 11 393 424 425 394
439 3 2 0 11 394 425 426 395
440 3 2 0 11 395 426 427 396
441 3 2 0 11 396 427 428 397
442 3 2 0 11 397 428 429 398
443 3 2 0 11 398 429 430 399
444 3 2 0 11 399 430 431 400
445 3 2 0 11 400 431 432 401
446 3 2 0 11 401 432 433 402
447 3 2 0 11 402 433 434 403
448 3 2 0 11 403 434 435 404
449 3 2 0 11 404 435 436 405
450 3 2 0 11 405 436 437 406
451 3 2 0 11 406 437 438 407
452 3 2 0 11 407 438 439 408
453 3 2 0 11 408 439 89 90
454 3 2 0 11 15 16 440 409
455 3 2 0 11 409 440 441 410
456 3 2 0 11 410 441 442 411
457 3 2 0 11 411 442 443 412
458 3 2 0 11 412 443 444 413
459 3 2 0 11 413 444 445 414
460 3 2 0 11 414 445 446 415
461 3 2 0 11 415 446 447 416
462 3 2 0 11 416 447 448 417
463 3 2 0 11 417 448 449 418
464 3 2 0 11 418 449 450 419
465 3 2 0 11 419 450 451 420
466 3 2 0 11 420 451 452 421
467 3 2 0 11 421 452 453 422
468 3 2 0 11 422 453 454 423
469 3 2 0 11 423 454 455 424
470 3 2 0 11 424 455 456 425
471 3 2 0 11 425 456 457 426
472 3 2 0 11 426 457 458 427
473 3 2 0 11 427 458 459 428
474 3 2 0 11 428 459 460 429
475 3 2 0 11 429 460 461 430
476 3 2 0 11 430 461 462 431
477 3 2 0 11 431 462 463 432
478 3 2 0 11 432 463 464 433
479 3 2 0 11 433 464 465 434
480 3 2 0 11 434 465 466 435
481 3 2 0 11 435 466 467 436
482 3 2 0 11 436 467 468 437
483 3 2 0 11 437 468 469 438
484 3 2 0 11 438 469 470 439
485 3 2 0 11 439 470 88 89
486 3 2 0 11 16 17 471 440
487 3 2 0 11 440 471 472 441
488 3 2 0 11 441 472 473 442
489 3 2 0 11 442 473 474 443
490 3 2 0 11 443 474 475 444
491 3 2 0 11 444 475 476 445
492 3 2 0 11 445 476 477 446
493 3 2 0 11 446 477 478 447
494 3 2 0 11 447 478 479 448
495 3 2 0 11 448 479 480 449
496 3 2 0 11 449 480 481 450
497 3 2 0 11 450 481 482 451
498 3 2 0 11 451 482 483 452
499 3 2 0 11 452 483 484 453
500 3 2 0 11 453 484 485 454
501 3 2 0 11 454 485 486 455
502 3 2 0 11 455 486 487 456
503 3 2 0 11 456 487 488 457
504 3 2 0 11 457 488 489 458
505 3 2 0 11 458 489 490 459
506 3 2 0 11 459 490 491 460
507 3 2 0 11 460 491 492 461
508 3 2 0 11 461 492 493 462
509 3 2 0 11 462 493 494 463
510 3 2 0 11 463 494 495 464
511 3 2 0 11 464 495 496 465
512 3 2 0 11 465 496 497 466
513 3 2 0 11 466 497 498 467
514 3 2 0 11 467 498 499 468
515 3 2 0 11 468 499 500 469
516 3 2 0 11 469 500 501 470
517 3 2 0 11 470 501 87 88
518 3 2 0 11 17 18 502 471
519 3 2 0 11 471 502 503 472
520 3 2 0 11 472 503 504 473
521 3 2 0 11 473 504 505 474
522 3 2 0 11 474 505 506 475
523 3 2 0 11 475 506 507 476
524 3 2 0 11 476 507 508 477
525 3 2 0 11 477 508 509 478
526 3 2 0 11 478 509 510 479
527 3 2 0 11 479 510 511 480
528 3 2 0 11 480 511 512 481
529 3 2 0 11 481 512 513 482
530 3 2 0 11 482 513 514 483
531 3 2 0 11 483 514 515 484
532 3 2 0 11 484 515 516 485
533 3 2 0 11 485 516 517 486
534 3 2 0 11 486 517 518 487
535 3 2 0 11 487 518 519 488
536 3 2 0 11 488 519 520 489
537 3 2 0 11 489 520 521 490
538 3 2 0 11 490 521 522 491
539 3 2 0 11 491 522 523 492
540 3 2 0 11 492 523 524 493
541 3 2 0 11 493 524 525 494
542 3 2 0 11 494 525 526 495
543 3 2 0 11 495 526 527 496
544 3 2 0 11 496 527 528 497
545 3 2 0 11 497 528 529 498
546 3 2 0 11 498 529 530 499
547 3 2 0 11 499 530 531 500
548 3 2 0 11 500 531 532 501
549 3 2 0 11 501 532 86 87
550 3 2 0 11 18 19 533 502
551 3 2 0 11 502 533 534 503
552 3 2 0 11 503 534 535 504
553 3 2 0 11 504 535 536 505
554 3 2 0 11 505 536 537 506
555 3 2 0 11 506 537 538 507
556 3 2 0 11 507 538 539 508
557 3 2 0 11 508 539 540 509
558 3 2 0 11 509 540 541 510
559 3 2 0 11 510 541 542 511
560 3 2 0 11 511 542 543 512
561 3 2 0 11 512 543 544 513
562 3 2 0 11 513 544 545 514
563 3 2 0 11 514 545 546 515
564 3 2 0 11 515 546 547 516
565 3 2 0 11 516 547 548 517
566 3 2 0 11 517 548 549 518
567 3 2 0 11 518 549 550 519
568 3 2 0 11 519 550 551 520
569 3 2 0 11 520 551 552 521
570 3 2 0 11 521 552 553 522
571 3 2 0 11 522 553 554 523
572 3 2 0 11 523 554 555 524
573 3 2 0 11 524 555 556 525
574 3 2 0 11 525 556 557 526
575 3 2 0 11 526 557 558 527
576 3 2 0 11 527 558 559 528
577 3 2 0 11 528 559 560 529
578 3 2 0 11 529 560 561 530
579 3 2 0 11 530 561 562 531
580 3 2 0 11 531 562 563 532
581 3 2 0 11 532 563 85 86
582 3 2 0 11 19 20 564 533
583 3 2 0 11 533 564 565 534
584 3 2 0 11 534 565 566 535
585 3 2 0 11 535 566 567 536
586 3 2 0 11 536 567 568 537
587 3 2 0 11 537 568 569 538
588 3 2 0 11 538 569 570 539
589 3 2 0 11 539 570 571 540
590 3 2 0 11 540 571 572 541
591 3 2 0 11 541 572 573 542
592 3 2 0 11 542 573 574 543
593 3 2 0 11 543 574 575 544
594 3 2 0 11 544 575 576 545
595 3 2 0 11 545 576 577 546
596 3 2 0 11 546 577 578 547
597 3 2 0 11 547 578 579 548
598 3 2 0 11 548 579 580 549
599 3 2 0 11 549 580 581 550
600 3 2 0 11 550 581 582 551
601 3 2 0 11 551 582 583 552
602 3 2 0 11 552 583 584 553
603 3 2 0 11 553 584 585 554
604 3 2 0 11 554 585 586 555
605 3 2 0 11 555 586 587 556
606 3 2 0 11 556 587 588 557
607 3 2 0 11 557 588 589 558
608 3 2 0 11 558 589 590 559
609 3 2 0 11 559 590 591 560
610 3 2 0 11 560 591 592 561
611 3 2 0 11 561 592 593 562
612 3 2 0 11 562 593 594 563
613 3 2 0 11 563 594 84 85
614 3 2 0 11 20 21 595 564
615 3 2 0 11 564 595 596 565
616 3 2 0 11 565 596 597 566
617 3 2 0 11 566 597 598 567
618 3 2 0 11 567 598 599 568
619 3 2 0 11 568 599 600 569
620 3 2 0 11 569 600 601 570
621 3 2 0 11 570 601 602 571
622 3 2 0 11 571 602 603 572
623 3 2 0 11 572 603 604 573
624 3 2 0 11 573 604 605 574
625 3 2 0 11 574 605 606 575
626 3 2 0 11 575 606 607 576
627 3 2 0 11 576 607 608 577
628 3 2 0 11 577 608 609 578
629 3 2 0 11 578 609 610 579
630 3 2 0 11 579 610 611 580
631 3 2 0 11 580 611 612 581
632 3 2 0 11 581 612 613 582
633 3 2 0 11 582 613 614 583
634 3 2 0 11 583 614 615 584
635 3 2 0 11 584 615 616 585
636 3 2 0 11 585 616 617 586
637 3 2 0 11 586 617 618 587
638 3 2 0 11 587 618 619 588
639 3 2 0 11 588 619 620 589
640 3 2 0 11 589 620 621 590
641 3 2 0 11 590 621 622 591
642 3 2 0 11 591 622 623 592
643 3 2 0 11 592 623 624 593
644 3 2 0 11 593 624 625 594
645 3 2 0 11 594 625 83 84
646 3 2 0 11 21 22 626 595
647 3 2 0 11 595 626 627 596
648 3 2 0 11 596 627 628 597
649 3 2 0 11 597 628 629 598
650 3 2 0 11 598 629 630 599
651 3 2 0 11 599 630 631 600
652 3 2 0 11 600 631 632 601
653 3 2 0 11 601 632 633 602
654 3 2 0 11 602 633 634 603
655 3 2 0 11 603 634 635 604
656 3 2 0 11 604 635 636 605
657 3 2 0 11 605 636 637 606
658 3 2 0 11 606 637 638 607
659 3 2 0 11 607 638 639 608
660 3 2 0 11 608 639 640 609
661 3 2 0 11 609 640 641 610
662 3 2 0 11 610 641 642 611
663 3 2 0 11 611 642 643 612
664 3 2 0 11 612 643 644 613
665 3 2 0 11 613 644 645 614
666 3 2 0 11 614 645 646 615
667 3 2 0 11 615 646 647 616
668 3 2 0 11 616 647 648 617
669 3 2 0 11 617 648 649 618
670 3 2 0 11 618 649 650 619
671 3 2 0 11 619 650 651 620
672 3 2 0 11 620 651 652 621
673 3 2 0 11 621 652 653 622
674 3 2 0 11 622 653 654 623
675 3 2 0 11 623 654 655 624
676 3 2 0 11 624 655 656 625
677 3 2 0 11 625 656 82 83
678 3 2 0 11 22 23 657 626
679 3 2 0 11 626 657 658 627
680 3 2 0 11 627 658 659 628
681 3 2 0 11 628 659 660 629
682 3 2 0 11 629 660 661 630
683 3 2 0 11 630 661 662 631
684 3 2 0 11 631 662 663 632
685 3 2 0 11 632 663 664 633
686 3 2 0 11 633 664 665 634
687 3 2 0 11 634 665 666 635
688 3 2 0 11 635 666 667 636
689 3 2 0 11 636 667 668 637
690 3 2 0 11 637 668 669 638
691 3 2 0 11 638 669 670 639
692 3 2 0 11 639 670 671 640
693 3 2 0 11 640 671 672 641
694 3 2 0 11 641 672 673 642
695 3 2 0 11 642 673 674 643
696 3 2 0 11 643 674 675 644
697 3 2 0 11 644 675 676 645
698 3 2 0 11 645 676 677 646
699 3 2 0 11 646 677 678 647
700 3 2 0 11 647 678 679 648
701 3 2 0 11 648 679 680 649
702 3 2 0 11 649 680 681 650
703 3 2 0 11 650 681 682 651
704 3 2 0 11 651 682 683 652
705 3 2 0 11 652 683 684 653
706 3 2 0 11 653 684 685 654
707 3 2 0 11 654 685 686 655
708 3 2 0 11 655 686 687 656
709 3 2 0 11 656 687 81 82
710 3 2 0 11 23 24 688 657
711 3 2 0 11 657 688 689 658
712 3 2 0 11 658 689 690 659
713 3 2 0 11 659 690 691 660
714 3 2 0 11 660 691 692 661
715 3 2 0 11 661 692 693 662
716 3 2 0 11 662 693 694 663
717 3 2 0 11 663 694 695 664
718 3 2 0 11 664 695 696 665
719 3 2 0 11 665 696 697 666
720 3 2 0 11 666 697 698 667
721 3 2 0 11 667 698 699 668
722 3 2 0 11 668 699 700 669
723 3 2 0 11 669 700 701 670
724 3 2 0 11 670 701 702 671
725 3 2 0 11 671 702 703 672
726 3 2 0 11 672 703 704 673
727 3 2 0 11 673 704 705 674
728 3 2 0 11 674 705 706 675
729 3 2 0 11 675 706 707 676
730 3 2 0 11 676 707 708 677
731 3 2 0 11 677 708 709 678
732 3 2 0 11 678 709 710 679
733 3 2 0 11 679 710 711 680
734 3 2 0 11 680 711 712 681
735 3 2 0 11 681 712 713 682
736 3 2 0 11 682 713 714 683
737 3 2 0 11 683 714 715 684
738 3 2 0 11 684 715 716 685
739 3 2 0 11 685 716 717 686
740 3 2 0 11 686 717 718 687
741 3 2 0 11 687 718 80 81
742 3 2 0 11 24 25 719 688
743 3 2 0 11 688 719 720 689
744 3 2 0 11 689 720 721 690
745 3 2 0 11 690 721 722 691
746 3 2 0 11 691 722 723 692
747 3 2 0 11 692 723 724 693
748 3 2 0 11 693 724 725 694
749 3 2 0 11 694 725 726 695
750 3 2 0 11 695 726 727 696
751 3 2 0 11 696 727 728 697
752 3 2 0 11 697 728 729 698
753 3 2 0 11 698 729 730 699
754 3 2 0 11 699 730 731 700
755 3 2 0 11 700 731 732 701
756 3 2 0 11 701 732 733 702
757 3 2 0 11 702 733 734 703
758 3 2 0 11 703 734 735 704
759 3 2 0 11 704 735 736 705
760 3 2 0 11 705 736 737 706
761 3 2 0 11 706 737 738 707
762 3 2 0 11 707 738 739 708
763 3 2 0 11 708 739 740 709
764 3 2 0 11 709 740 741 710
765 3 2 0 11 710 741 742 711
766 3 2 0 11 711 742 743 712
767 3 2 0 11 712 743 744 713
768 3 2 0 11 713 744 745 714
769 3 2 0 11 714 745 746 715
770 3 2 0 11 715 746 747 716
771 3 2 0 11 716 747 748 717
772 3 2 0 11 717 748 749 718
773 3 2 0 11 718 749 79 80
774 3 2 0 11 25 26 750 719
775 3 2 0 11 719 750 751 720
776 3 2 0 11 720 751 752 721
777 3 2 0 11 721 752 753 722
778 3 2 0 11 722 753 754 723
779 3 2 0 11 723 754 755 724
780 3 2 0 11 724 755 756 725
781 3 2 0 11 725 756 757 726
782 3 2 0 11 726 757 758 727
783 3 2 0 11 727 758 759 728
784 3 2 0 11 728 759 760 729
785 3 2 0 11 729 760 761 730
786 3 2 0 11 730 761 762 731
787 3 2 0 11 731 762 763 732
788 3 2 0 11 732 763 764 733
789 3 2 0 11 733 764 765 734
790 3 2 0 11 734 765 766 735
791 3 2 0 11 735 766 767 736
792 3 2 0 11 736 767 768 737
793 3 2 0 11 737 768 769 738
794 3 2 0 11 738 769 770 739
795 3 2 0 11 739 770 771 740
796 3 2 0 11 740 771 772 741
797 3 2 0 11 741 772 773 742
798 3 2 0 11 742 773 774 743
799 3 2 0 11 743 774 775 744
800 3 2 0 11 744 775 776 745
801 3 2 0 11 745 776 777 746
802 3 2 0 11 746 777 778 747
803 3 2 0 11 747 778 779 748
804 3 2 0 11 748 779 780 749
805 3 2 0 11 749 780 78 79
806 3 2 0 11 26 27 781 750
807 3 2 0 11 750 781 782 751
808 3 2 0 11 751 782 783 752
809 3 2 0 11 752 783 784 753
810 3 2 0 11 753 784 785 754
811 3 2 0 11 754 785 786 755
812 3 2 0 11 755 786 787 756
813 3 2 0 11 756 787 788 757
814 3 2 0 11 757 788 789 758
815 3 2 0 11 758 789 790 759
816 3 2 0 11 759 790 791 760
817 3 2 0 11 760 791 792 761
818 3 2 0 11 761 792 793 762
819 3 2 0 11 762 793 794 763
820 3 2 0 11 763 794 795 764
821 3 2 0 11 764 795 796 765
822 3 2 0 11 765 796 797 766
823 3 2 0 11 766 797 798 767
824 3 2 0 11 767 798 799 768
825 3 2 0 11 768 799 800 769
826 3 2 0 11 769 800 801 770
827 3 2 0 11 770 801 802 771
828 3 2 0 11 771 802 803 772
829 3 2 0 11 772 803 804 773
830 3 2 0 11 773 804 805 774
831 3 2 0 11 774 805 806 775
832 3 2 0 11 775 806 807 776
833 3 2 0 11 776 807 808 777
834 3 2 0 11 777 808 809 778
835 3 2 0 11 778 809 810 779
836 3 2 0 11 779 810 811 780
837 3 2 0 11 780 811 77 78
838 3 2 0 11 27 28 812 781
839 3 2 0 11 781 812 813 782
840 3 2 0 11 782 813 814 783
841 3 2 0 11 783 814 815 784
842 3 2 0 11 784 815 816 785
843 3 2 0 11 785 816 817 786
844 3 2 0 11 786 817 818 787
845 3 2 0 11 787 818 819 788
846 3 2 0 11 788 819 820 789
847 3 2 0 11 789 820 821 790
848 3 2 0 11 790 821 822 791
849 3 2 0 11 791 822 823 792
850 3 2 0 11 792 823 824 793
851 3 2 0 11 793 824 825 794
852 3 2 0 11 794 825 826 795
853 3 2 0 11 795 826 827 796
854 3 2 0 11 796 827 828 797
855 3 2 0 11 797 828 829 798
856 3 2 0 11 798 829 830 799
857 3 2 0 11 799 830 831 800
858 3 2 0 11 800 831 832 801
859 3 2 0 11 801 832 833 802
860 3 2 0 11 802 833 834 803
861 3 2 0 11 803 834 835 804
862 3 2 0 11 804 835 836 805
863 3 2 0 11 805 836 837 806
864 3 2 0 11 806 837 838 807
865 3 2 0 11 807 838 839 808
866 3 2 0 11 808 839 840 809
867 3 2 0 11 809 840 841 810
868 3 2 0 11 810 841 842 811
869 3 2 0 11 811 842 76 77
870 3 2 0 11 28 29 843 812
871 3 2 0 11 812 843 844 813
872 3 2 0 11 813 844 845 814
873 3 2 0 11 814 845 846 815
874 3 2 0 11 815 846 847 816
875 3 2 0 11 816 847 848 817
876 3 2 0 11 817 848 849 818
877 3 2 0 11 818 849 850 819
878 3 2 0 11 819 850 851 820
879 3 2 0 11 820 851 852 821
880 3 2 0 11 821 852 853 822
881 3 2 0 11 822 853 854 823
882 3 2 0 11 823 854 855 824
883 3 2 0 11 824 855 856 825
884 3 2 0 11 825 856 857 826
885 3 2 0 11 826 857 858 827
886 3 2 0 11 827 858 859 828
887 3 2 0 11 828 859 860 829
888 3 2 0 11 829 860 861 830
889 3 2 0 11 830 861 862 831
890 3 2 0 11 831 862 863 832
891 3 2 0 11 832 863 864 833
892 3 2 0 11 833 864 865 834
893 3 2 0 11 834 865 866 835
894 3 2 0 11 835 866 867 836
895 3 2 0 11 836 867 868 837
896 3 2 0 11 837 868 869 838
897 3 2 0 11 838 869 870 839
898 3 2 0 11 839 870 871 840
899 3 2 0 11 840 871 872 841
900 3 2 0 11 841 872 873 842
901 3 2 0 11 842 873 75 76
902 3 2 0 11 29 30 874 843
903 3 2 0 11 843 874 875 844
904 3 2 0 11 844 875 876 845
905 3 2 0 11 845 876 877 846
906 3 2 0 11 846 877 878 847
907 3 2 0 11 847 878 879 848
908 3 2 0 11 848 879 880 849
909 3 2 0 11 849 880 881 850
910 3 2 0 11 850 881 882 851
911 3 2 0 11 851 882 883 852
912 3 2 0 11 852 883 884 853
913 3 2 0 11 853 884 885 854
914 3 2 0 11 854 885 886 855
915 3 2 0 11 855 886 887 856
916 3 2 0 11 856 887 888 857
917 3 2 0 11 857 888 889 858
918 3 2 0 11 858 889 890 859
919 3 2 0 11 859 890 891 860
920 3 2 0 11 860 891 892 861
921 3 2 0 11 861 892 893 862
922 3 2 0 11 862 893 894 863
923 3 2 0 11 863 894 895 864
924 3 2 0 11 864 895 896 865
925 3 2 0 11 865 896 897 866
926 3 2 0 11 866 897 898 867
927 3 2 0 11 867 898 899 868
928 3 2 0 11 868 899 900 869
929 3 2 0 11 869 900 901 870
930 3 2 0 11 870 901 902 871
931 3 2 0 11 871 902 903 872
932 3 2 0 11 872 903 904 873
933 3 2 0 11 873 904 74 75
934 3 2 0 11 30 31 905 874
935 3 2 0 11 874 905 906 875
936 3 2 0 11 875 906 907 876
937 3 2 0 11 876 907 908 877
938 3 2 0 11 877 908 909 878
939 3 2 0 11 878 909 910 879
940 3 2 0 11 879 910 911 880
941 3 2 0 11 880 911 912 881
942 3 2 0 11 881 912 913 882
943 3 2 0 11 882 913 914 883
944 3 2 0 11 883 914 915 884
945 3 2 0 11 884 915 916 885
946 3 2 0 11 885 916 917 886
947 3 2 0 11 886 917 918 887
948 3 2 0 11 887 918 919 888
949 3 2 0 11 888 919 920 889
950 3 2 0 11 889 920 921 890
951 3 2 0 11 890 921 922 891
952 3 2 0 11 891 922 923 892
953 3 2 0 11 892 923 924 893
954 3 2 0 11 893 924 925 894
955 3 2 0 11 894 925 926 895
956 3 2 0 11 895 926 927 896
957 3 2 0 11 896 927 928 897
958 3 2 0 11 897 928 929 898
959 3 2 0 11 898 929 930 899
960 3 2 0 11 899 930 931 900
961 3 2 0 11 900 931 932 901
962 3 2 0 11 901 932 933 902
963 3 2 0 11 902 933 934 903
964 3 2 0 11 903 934 935 904
965 3 2 0 11 904 935 73 74
966 3 2 0 11 31 32 936 905
967 3 2 0 11 905 936 937 906
968 3 2 0 11 906 937 938 907
969 3 2 0 11 907 938 939 908
970 3 2 0 11 908 939 940 909
971 3 2 0 11 909 940 941 910
972 3 2 0 11 910 941 942 911
973 3 2 0 11 911 942 943 912
974 3 2 0 11 912 943 944 913
975 3 2 0 11 913 944 945 914
976 3 2 0 11 914 945 946 915
977 3 2 0 11 915 946 947 916
978 3 2 0 11 916 947 948 917
979 3 2 0 11 917 948 949 918
980 3 2 0 11 918 949 950 919
981 3 2 0 11 919 950 951 920
982 3 2 0 11 920 951 952 921
983 3 2 0 11 921 952 953 922
984 3 2 0 11 922 953 954 923
985 3 2 0 11 923 954 955 924
986 3 2 0 11 924 955 956 925
987 3 2 0 11 925 956 957 926
988 3 2 0 11 926 957 958 927
989 3 2 0 11 927 958 959 928
990 3 2 0 11 928 959 960 929
991 3 2 0 11 929 960 961 930
992 3 2 0 11 930 961 962 931
993 3 2 0 11 931 962 963 932
994 3 2 0 11 932 963 964 933
995 3 2 0 11 933 964 965 934
996 3 2 0 11 934 965 966 935
997 3 2 0 11 935 966 72 73
998 3 2 0 11 32 33 967 936
999 3 2 0 11 936 967 968 937
1000 3 2 0 11 937 968 969 938
1001 3 2 0 11 938 969 970 939
1002 3 2 0 11 939 970 971 940
1003 3 2 0 11 940 971 972 941
1004 3 2 0 11 941 972 973 942
1005 3 2 0 11 942 973 974 943
1006 3 2 0 11 943 974 975 944
1007 3 2 0 11 944 975 976 945
1008 3 2 0 11 945 976 977 946
1009 3 2 0 11 946 977 978 947
1010 3 2 0 11 947 978 979 948
1011 3 2 0 11 948 979 980 949
1012 3 2 0 11 949 980 981 950
1013 3 2 0 11 950 981 982 951
1014 3 2 0 11 951 982 983 952
1015 3 2 0 11 952 983 984 953
1016 3 2 0 11 953 984 985 954
1017 3 2 0 11 954 985 986 955
1018 3 2 0 11 955 986 987 956
1019 3 2 0 11 956 987 988 957
1020 3 2 0 11 957 988 989 958
1021 3 2 0 11 958 989 990 959
1022 3 2 0 11 959 990 991 960
1023 3 2 0 11 960 991 992 961
1024 3 2 0 11 961 992 993 962
1025 3 2 0 11 962 993 994 963
1026 3 2 0 11 963 994 995 964
1027 3 2 0 11 964 995 996 965
1028 3 2 0 11 965 996 997 966
1029 3 2 0 11 966 997 71 72
1030 3 2 0 11 33 34 998 967
1031 3 2 0 11 967 998 999 968
1032 3 2 0 11 968 999 1000 969
1033 3 2 0 11 969 1000 1001 970
1034 3 2 0 11 970 1001 1002 971
1035 3 2 0 11 971 1002 1003 972
1036 3 2 0 11 972 1003 1004 973
1037 3 2 0 11 973 1004 1005 974
1038 3 2 0 11 974 1005 1006 975
1039 3 2 0 11 975 1006 1007 976
1040 3 2 0 11 976 1007 1008 977
1041 3 2 0 11 977 1008 1009 978
1042 3 2 0 11 978 1009 1010 979
1043 3 2 0 11 979 1010 1011 980
1044 3 2 0 11 980 1011 1012 981
1045 3 2 0 11 981 1012 1013 982
1046 3 2 0 11 982 1013 1014 983
1047 3 2 0 11 983 1014 1015 984
1048 3 2 0 11 984 1015 1016 985
1049 3 2 0 11 985 1016 1017 986
1050 3 2 0 11 986 1017 1018 987
1051 3 2 0 11 987 1018 1019 988
1052 3 2 0 11 988 1019 1020 989
1053 3 2 0 11 989 1020 1021 990
1054 3 2 0 11 990 1021 1022 991
1055 3 2 0 11 991 1022 1023 992
1056 3 2 0 11 992 1023 1024 993
1057 3 2 0 11 993 1024 1025 994
1058 3 2 0 11 994 1025 1026 995
1059 3 2 0 11 995 1026 1027 996
1060 3 2 0 11 996 1027 1028 997
1061 3 2 0 11 997 1028 70 71
1062 3 2 0 11 34 35 1029 998
1063 3 2 0 11 998 1029 1030 999
1064 3 2 0 11 999 1030 1031 1000
1065 3 2 0 11 1000 1031 1032 1001
1066 3 2 0 11 1001 1032 1033 1002
1067 3 2 0 11 1002 1033 1034 1003
1068 3 2 0 11 1003 1034 1035 1004
1069 3 2 0 11 1004 1035 1036 1005
1070 3 2 0 11 1005 1036 1037 1006
1071 3 2 0 11 1006 1037 1038 1007
1072 3 2 0 11 1007 1038 1039 1008
1073 3 2 0 11 1008 1039 1040 1009
1074 3 2 0 11 1009 1040 1041 1010
1075 3 2 0 11 1010 1041 1042 1011
1076 3 2 0 11 1011 1042 1043 1012
1077 3 2 0 11 1012 1043 1044 1013
1078 3 2 0 11 1013 1044 1045 1014
1079 3 2 0 11 1014 1045 1046 1015
1080 3 2 0 11 1015 1046 1047 1016
1081 3 2 0 11 1016 1047 1048 1017
1082 3 2 0 11 1017 1048 1049 1018
1083 3 2 0 11 1018 1049 1050 1019
1084 3 2 0 11 1019 1050 1051 1020
1085 3 2 0 11 1020 1051 1052 1021
1086 3 2 0 11 1021 1052 1053 1022
1087 3 2 0 11 1022 1053 1054 1023
1088 3 2 0 11 1023 1054 1055 1024
1089 3 2 0 11 1024 1055 1056 1025
1090 3 2 0 11 1025 1056 1057 1026
1091 3 2 0 11 1026 1057 1058 1027
1092 3 2 0 11 1027 1058 1059 1028
1093 3 2 0 11 1028 1059 69 70
1094 3 2 0 11 35 36 1060 1029
1095 3 2 0 11 1029 1060 1061 1030
1096 3 2 0 11 1030 1061 1062 1031
1097 3 2 0 11 1031 1062 1063 1032
1098 3 2 0 11 1032 1063 1064 1033
1099 3 2 0 11 1033 1064 1065 1034
1100 3 2 0 11 1034 1065 1066 1035
1101 3 2 0 11 1035 1066 1067 1036
1102 3 2 0 11 1036 1067 1068 1037
1103 3 2 0 11 1037 1068 1069 1038
1104 3 2 0 11 1038 1069 1070 1039
1105 3 2 0 11 1039 1070 1071 1040
1106 3 2 0 11 1040 1071 1072 1041
1107 3 2 0 11 1041 1072 1073 1042
1108 3 2 0 11 1042 1073 1074 1043
1109 3 2 0 11 1043 1074 1075 1044
1110 3 2 0 11 1044 1075 1076 1045
1111 3 2 0 11 1045 1076 1077 1046
1112 3 2 0 11 1046 1077 1078 1047
1113 3 2 0 11 1047 1078 1079 1048
1114 3 2 0 11 1048 1079 1080 1049
1115 3 2 0 11 1049 1080 1081 1050
1116 3 2 0 11 1050 1081 1082 1051
1117 3 2 0 11 1051 1082 1083 1052
1118 3 2 0 11 1052 1083 1084 1053
1119 3 2 0 11 1053 1084 1085 1054
1120 3 2 0 11 1054 1085 1086 1055
1121 3 2 0 11 1055 1086 1087 1056
1122 3 2 0 11 1056 1087 1088 1057
1123 3 2 0 11 1057 1088 1089 1058
1124 3 2 0 11 1058 1089 1090 1059
1125 3 2 0 11 1059 1090 68 69
1126 3 2 0 11 36 3 37 1060
1127 3 2 0 11 1060 37 38 1061
1128 3 2 0 11 1061 38 39 1062
1129 3 2 0 11 1062 39 40 1063
1130 3 2 0 11 1063 40 41 1064
1131 3 2 0 11 1064 41 42 1065
1132 3 2 0 11 1065 42 43 1066
1133 3 2 0 11 1066 43 44 1067
1134 3 2 0 11 1067 44 45 1068
1135 3 2 0 11 1068 45 46 1069
1136 3 2 0 11 1069 46 47 1070
1137 3 2 0 11 1070 47 48 1071
1138 3 2 0 11 1071 48 49 1072
1139 3 2 0 11 1072 49 50 1073
1140 3 2 0 11 1073 50 51 1074
1141 3 2 0 11 1074 51 52 1075
1142 3 2 0 11 1075 52 53 1076
1143 3 2 0 11 1076 53 54 1077
1144 3 2 0 11 1077 54 55 1078
1145 3 2 0 11 1078 55 56 1079
1146 3 2 0 11 1079 56 57 1080
1147 3 2 0 11 1080 57 58 1081
1148 3 2 0 11 1081 58 59 1082
1149 3 2 0 11 1082 59 60 1083
1150 3 2 0 11 1083 60 61 1084
1151 3 2 0 11 1084 61 62 1085
1152 3 2 0 11 1085 62 63 1086
1153 3 2 0 11 1086 63 64 1087
1154 3 2 0 11 1087 64 65 1088
1155 3 2 0 11 1088 65 66 1089
1156 3 2 0 11 1089 66 67 1090
1157 3 2 0 11 1090 67 4 68
$EndElements
